<svg xmlns="http://www.w3.org/2000/svg" viewBox="0 0 443.63 469.73"><defs><style>.cls-1{fill:#50b780;}</style></defs><g id="Layer_2" data-name="Layer 2"><g id="Layer_1-2" data-name="Layer 1"><path class="cls-1" d="M300,40.37a95.9,95.9,0,0,0-156.37,0C59.79,72.06,0,153.12,0,247.91,0,370.22,99.5,469.73,221.81,469.73s221.82-99.51,221.82-221.82C443.63,153.12,383.83,72.06,300,40.37ZM256.37,335.51l-21-90.49h27l-18.09-28h-45l-18.11,28h27.48l-21,90.62a94,94,0,0,1-23-162.49,95.79,95.79,0,0,0,114.31,0,94,94,0,0,1-22.6,162.36ZM221.81,38.19A57.84,57.84,0,1,1,164,96,57.91,57.91,0,0,1,221.81,38.19Zm0,393.34c-101.25,0-183.62-82.37-183.62-183.62A183.67,183.67,0,0,1,125.9,91.41q-.12,2.3-.12,4.62A95.44,95.44,0,0,0,139,144.64,132.21,132.21,0,0,0,89.38,247.91c0,73,59.41,132.44,132.43,132.44s132.44-59.41,132.44-132.44a132.21,132.21,0,0,0-49.66-103.27A95.44,95.44,0,0,0,317.85,96c0-1.55-.05-3.09-.12-4.62a183.66,183.66,0,0,1,87.7,156.5C405.43,349.16,323.06,431.53,221.81,431.53Z"/></g></g></svg>