<svg xmlns="http://www.w3.org/2000/svg" viewBox="0 0 1542.64 469.73"><defs><style>.cls-1{fill:#fff;}</style></defs><g id="Layer_2" data-name="Layer 2"><g id="Layer_1-2" data-name="Layer 1"><path class="cls-1" d="M300,40.37a95.9,95.9,0,0,0-156.37,0C59.79,72.06,0,153.12,0,247.91,0,370.22,99.5,469.73,221.81,469.73s221.82-99.51,221.82-221.82C443.63,153.12,383.83,72.06,300,40.37ZM256.37,335.51l-21-90.49h27l-18.09-28h-45l-18.11,28h27.48l-21,90.62a94,94,0,0,1-23-162.49,95.79,95.79,0,0,0,114.31,0,94,94,0,0,1-22.6,162.36ZM221.81,38.19A57.84,57.84,0,1,1,164,96,57.91,57.91,0,0,1,221.81,38.19Zm0,393.34c-101.25,0-183.62-82.37-183.62-183.62A183.67,183.67,0,0,1,125.9,91.41q-.12,2.3-.12,4.62A95.44,95.44,0,0,0,139,144.64,132.21,132.21,0,0,0,89.38,247.91c0,73,59.41,132.44,132.43,132.44s132.44-59.41,132.44-132.44a132.21,132.21,0,0,0-49.66-103.27A95.44,95.44,0,0,0,317.85,96c0-1.55-.05-3.09-.12-4.62a183.66,183.66,0,0,1,87.7,156.5C405.43,349.16,323.06,431.53,221.81,431.53Z"/><path class="cls-1" d="M545.41,194.17a71.58,71.58,0,0,0,23.66,15.37,81.94,81.94,0,0,0,58.82,0A71.33,71.33,0,0,0,673,142.42a73.22,73.22,0,0,0-5.56-28.66,69.42,69.42,0,0,0-15.65-23,72.45,72.45,0,0,0-23.66-15.27,83,83,0,0,0-59.2,0,72.45,72.45,0,0,0-23.66,15.27,69.42,69.42,0,0,0-15.65,23A73,73,0,0,0,524,142.42a71.34,71.34,0,0,0,21.4,51.75Zm11.22-70.32a43.45,43.45,0,0,1,9.61-14.61,42.81,42.81,0,0,1,14.42-9.52,49.76,49.76,0,0,1,35.64,0,42.81,42.81,0,0,1,14.42,9.52,43.45,43.45,0,0,1,9.61,14.61,49,49,0,0,1,3.4,18.57,49.7,49.7,0,0,1-3.4,18.67,42.29,42.29,0,0,1-9.61,14.61,44.84,44.84,0,0,1-14.42,9.52,48.53,48.53,0,0,1-35.64,0,44.84,44.84,0,0,1-14.42-9.52,42.29,42.29,0,0,1-9.61-14.61,49.7,49.7,0,0,1-3.4-18.67A49,49,0,0,1,556.63,123.85Z"/><path class="cls-1" d="M721.78,208q13,7,29.6,7t29.6-7a52.61,52.61,0,0,0,20.45-19.14,51.74,51.74,0,0,0,7.45-27.62v-89H779.66v87.1a30.62,30.62,0,0,1-3.68,15,27.11,27.11,0,0,1-10,10.46,30,30,0,0,1-29.13,0,26.91,26.91,0,0,1-10.08-10.46,30.52,30.52,0,0,1-3.68-15V72.29H693.88v89a51.83,51.83,0,0,0,7.44,27.62A52.71,52.71,0,0,0,721.78,208Z"/><polygon class="cls-1" points="859.22 212.74 888.44 212.74 888.44 97.74 923.51 97.74 923.51 72.29 823.59 72.29 823.59 97.74 859.22 97.74 859.22 212.74"/><polygon class="cls-1" points="1049.26 212.74 1083.19 212.74 1119.95 72.29 1088.28 72.29 1064.7 172.4 1039.83 72.29 1009.66 72.29 984.8 172.4 961.21 72.29 929.54 72.29 966.3 212.74 1000.24 212.74 1024.75 118.48 1049.26 212.74"/><path class="cls-1" d="M1202.91,215a78.11,78.11,0,0,0,29.41-5.46,71.33,71.33,0,0,0,45.06-67.12,73.22,73.22,0,0,0-5.56-28.66,69.42,69.42,0,0,0-15.65-23,72.55,72.55,0,0,0-23.66-15.27,83,83,0,0,0-59.2,0,72.45,72.45,0,0,0-23.66,15.27,69.12,69.12,0,0,0-15.65,23,73,73,0,0,0-5.56,28.66,71.32,71.32,0,0,0,45.06,67.12A78.07,78.07,0,0,0,1202.91,215Zm-41.86-53.91a49.9,49.9,0,0,1-3.39-18.67,49.15,49.15,0,0,1,3.39-18.57,43.62,43.62,0,0,1,9.62-14.61,42.71,42.71,0,0,1,14.42-9.52,49.74,49.74,0,0,1,35.63,0,42.75,42.75,0,0,1,14.43,9.52,43.6,43.6,0,0,1,9.61,14.61,49.15,49.15,0,0,1,3.39,18.57,49.9,49.9,0,0,1-3.39,18.67,42.43,42.43,0,0,1-9.61,14.61,44.77,44.77,0,0,1-14.43,9.52,48.51,48.51,0,0,1-35.63,0,44.73,44.73,0,0,1-14.42-9.52A42.46,42.46,0,0,1,1161.05,161.09Z"/><path class="cls-1" d="M1329.22,161.84H1350l28.47,50.9h32.8l-32-56a41.16,41.16,0,0,0,17.72-15.18q6.6-10.08,6.6-24.41,0-14.72-6.41-24.7a40.13,40.13,0,0,0-17.62-15.08q-11.22-5.1-25.74-5.09H1300V212.74h29.22Zm0-64.1h24.7a22.31,22.31,0,0,1,10.75,2.45,18,18,0,0,1,7.07,6.79,19.8,19.8,0,0,1,2.54,10.18,19.42,19.42,0,0,1-2.54,10,18,18,0,0,1-7.07,6.79,22.31,22.31,0,0,1-10.75,2.45h-24.7Z"/><polygon class="cls-1" points="1494 129.62 1541.51 72.29 1504.93 72.29 1456.86 130.04 1456.86 72.29 1427.63 72.29 1427.63 212.74 1456.86 212.74 1456.86 174.28 1474.2 153.36 1508.51 212.74 1542.64 212.74 1494 129.62"/><path class="cls-1" d="M565.3,267.77a26.9,26.9,0,0,1,10.37-1.88,30.7,30.7,0,0,1,18.1,5.56,33.64,33.64,0,0,1,11.87,15.36l23.76-10.74a51.07,51.07,0,0,0-11.78-19,54.59,54.59,0,0,0-18.57-12.26,62,62,0,0,0-23.38-4.33q-14.32,0-25.36,5.28a41.13,41.13,0,0,0-17.16,14.7A39.26,39.26,0,0,0,527,282.29q0,14.15,8.48,24.23t25.26,15.55l27.53,9.05q6.41,2.07,9.43,5.56a12.45,12.45,0,0,1,3,8.39,12.74,12.74,0,0,1-2.45,7.82,16.28,16.28,0,0,1-6.79,5.19A25.81,25.81,0,0,1,581.14,360a34.94,34.94,0,0,1-20.65-6.59,44.22,44.22,0,0,1-14.61-18.1L521.94,346a56.89,56.89,0,0,0,12.53,20.93,57.62,57.62,0,0,0,20,13.67,64.16,64.16,0,0,0,24.79,4.81q14.89,0,26.11-5.38A43.22,43.22,0,0,0,623,365.15a38.1,38.1,0,0,0,6.41-21.78q0-14.13-8.39-23.94t-25.36-15.27l-27-8.67q-6.41-2.07-9.61-5.75a12.64,12.64,0,0,1-3.21-8.58,13.59,13.59,0,0,1,2.45-8A15.62,15.62,0,0,1,565.3,267.77Z"/><polygon class="cls-1" points="741.58 242.7 641.65 242.7 641.65 268.15 677.29 268.15 677.29 383.15 706.51 383.15 706.51 268.15 741.58 268.15 741.58 242.7"/><path class="cls-1" d="M785.69,242.7,738.18,383.15h31.67l9.43-28.65h51.47l9.43,28.65H872L824.53,242.7Zm1.7,86.35,17.7-54.2,17.55,54.2Z"/><polygon class="cls-1" points="888.44 383.15 917.66 383.15 917.66 329.23 975.16 329.23 975.16 303.78 917.66 303.78 917.66 268.15 984.59 268.15 984.59 242.7 888.44 242.7 888.44 383.15"/><polygon class="cls-1" points="1000.99 383.15 1030.21 383.15 1030.21 329.23 1087.71 329.23 1087.71 303.78 1030.21 303.78 1030.21 268.15 1097.14 268.15 1097.14 242.7 1000.99 242.7 1000.99 383.15"/><rect class="cls-1" x="1113.54" y="242.7" width="29.22" height="140.45"/><polygon class="cls-1" points="1255.32 326.16 1191.97 242.7 1169.54 242.7 1169.54 383.15 1198.76 383.15 1198.76 297.82 1261.91 383.15 1284.54 383.15 1284.54 242.7 1255.32 242.7 1255.32 326.16"/><path class="cls-1" d="M1378.05,327.54h37.52v.37a27.31,27.31,0,0,1-5.19,16.78,33.24,33.24,0,0,1-13.57,10.66,44.37,44.37,0,0,1-18,3.67,40.2,40.2,0,0,1-37-22.06q-5.46-10.36-5.46-24.13t5.18-24a39.49,39.49,0,0,1,14.61-16.11,40.62,40.62,0,0,1,21.87-5.85q12.83,0,21.78,6.69a35.46,35.46,0,0,1,12.53,16.88L1438.19,278a49.43,49.43,0,0,0-12.06-18.85,63.5,63.5,0,0,0-20.65-13.57,70.33,70.33,0,0,0-27.43-5.09,72.63,72.63,0,0,0-28.18,5.37,67.58,67.58,0,0,0-37.43,38.08,77.7,77.7,0,0,0-5.28,28.94,74.54,74.54,0,0,0,5.47,28.85,70.14,70.14,0,0,0,15.27,23A70.86,70.86,0,0,0,1350.71,380a71.9,71.9,0,0,0,28.1,5.47,72.87,72.87,0,0,0,23.84-4.06A62.92,62.92,0,0,0,1424,368.92a60.31,60.31,0,0,0,15.17-21.12q5.67-12.72,5.66-29.88V303h-66.74Z"/></g></g></svg>