<svg xmlns="http://www.w3.org/2000/svg" viewBox="0 0 1590.27 471.66"><defs><style>.cls-1{fill:#50b780;}.cls-2{fill:#283e39;}</style></defs><g id="Layer_2" data-name="Layer 2"><g id="Layer_1-2" data-name="Layer 1"><path class="cls-1" d="M300,40.37a95.9,95.9,0,0,0-156.37,0C59.79,72.06,0,153.12,0,247.91,0,370.22,99.5,469.73,221.81,469.73s221.82-99.51,221.82-221.82C443.63,153.12,383.83,72.06,300,40.37ZM256.37,335.51l-21-90.49h27l-18.09-28h-45l-18.11,28h27.48l-21,90.62a94,94,0,0,1-23-162.49,95.79,95.79,0,0,0,114.31,0,94,94,0,0,1-22.6,162.36ZM221.81,38.19A57.84,57.84,0,1,1,164,96,57.91,57.91,0,0,1,221.81,38.19Zm0,393.34c-101.25,0-183.62-82.37-183.62-183.62A183.67,183.67,0,0,1,125.9,91.41q-.12,2.3-.12,4.62A95.44,95.44,0,0,0,139,144.64,132.21,132.21,0,0,0,89.38,247.91c0,73,59.41,132.44,132.43,132.44s132.44-59.41,132.44-132.44a132.21,132.21,0,0,0-49.66-103.27A95.44,95.44,0,0,0,317.85,96c0-1.55-.05-3.09-.12-4.62a183.66,183.66,0,0,1,87.7,156.5C405.43,349.16,323.06,431.53,221.81,431.53Z"/><text/><path class="cls-2" d="M607.65,215.38a100.74,100.74,0,0,1-38.46-7.29A95.69,95.69,0,0,1,538,187.73a93,93,0,0,1-20.74-30.8,98.33,98.33,0,0,1-7.41-38.33,99.5,99.5,0,0,1,7.29-38.46,91.69,91.69,0,0,1,20.61-30.67,94.11,94.11,0,0,1,31.17-20.24,103.07,103.07,0,0,1,38.71-7.16,101.39,101.39,0,0,1,38.71,7.29,97,97,0,0,1,31.18,20.23,91.89,91.89,0,0,1,20.73,30.55,98.1,98.1,0,0,1,7.42,38.46,96.8,96.8,0,0,1-7.54,38.33,94.58,94.58,0,0,1-20.87,30.8,96.07,96.07,0,0,1-31,20.36A100.49,100.49,0,0,1,607.65,215.38Zm0-31.17A64.36,64.36,0,0,0,633,179.3a62,62,0,0,0,20.24-13.7,60.13,60.13,0,0,0,13.32-20.86,72,72,0,0,0,4.65-26.14,71.08,71.08,0,0,0-4.65-26,61.75,61.75,0,0,0-13.32-20.86A59.62,59.62,0,0,0,633,58a65.76,65.76,0,0,0-25.39-4.78A65,65,0,0,0,582.52,58a59.62,59.62,0,0,0-20.24,13.7,63.32,63.32,0,0,0-13.45,20.86,69.49,69.49,0,0,0-4.77,26,70.42,70.42,0,0,0,4.77,26.14,61.52,61.52,0,0,0,33.69,34.56A63.64,63.64,0,0,0,607.65,184.21Z"/><path class="cls-2" d="M782.1,215.38q-15.83,0-27.52-7a46,46,0,0,1-17.85-19.61q-6.16-12.57-6.16-29.41V75.61H763.5v81a31.41,31.41,0,0,0,3.4,14.95,24.59,24.59,0,0,0,9.8,10.06,28.7,28.7,0,0,0,14.45,3.64,28,28,0,0,0,14.33-3.64,25.51,25.51,0,0,0,9.81-10.18,32.54,32.54,0,0,0,3.52-15.59V75.61h32.93V212.36H820.57v-26.9l2.76,4.78a35.42,35.42,0,0,1-15.71,18.85Q796.69,215.38,782.1,215.38Z"/><path class="cls-2" d="M944.74,213.87q-23.13,0-35.82-12.7t-12.69-35.82V105H872.6V75.61h2.51q10,0,15.59-5.28T896.23,55V44.44h32.93V75.61h31.42V105H929.16v58.57a25.67,25.67,0,0,0,2.38,11.57,16,16,0,0,0,7.55,7.29q5.14,2.51,13.19,2.51a39.68,39.68,0,0,0,4.15-.25l4.65-.5v28.15q-3.52.49-8,1A76.88,76.88,0,0,1,944.74,213.87Z"/><path class="cls-2" d="M1020.66,212.36l-47-136.75h34.69l34.44,103.82-12.07-.25,36.7-103.57h29.16L1133,179.18l-12.07.25,34.44-103.82h34.69l-47,136.75h-29.42L1076.46,104h11.06l-37.71,108.34Z"/><path class="cls-2" d="M1272.53,215.38a73,73,0,0,1-36.57-9.3,70.41,70.41,0,0,1-26.15-25.39q-9.68-16.09-9.67-36.7t9.67-36.7a70.65,70.65,0,0,1,26-25.39q16.34-9.3,36.7-9.3A72.36,72.36,0,0,1,1309,81.9a71,71,0,0,1,26,25.26q9.68,16,9.68,36.83,0,20.61-9.81,36.7a71.87,71.87,0,0,1-62.34,34.69Zm0-30.17a35.93,35.93,0,0,0,19.49-5.28,37.23,37.23,0,0,0,13.32-14.7,45.32,45.32,0,0,0,4.9-21.24,44.34,44.34,0,0,0-4.9-21.24A38.57,38.57,0,0,0,1292,108.17a35.25,35.25,0,0,0-19.49-5.41,36.32,36.32,0,0,0-19.86,5.41,38.16,38.16,0,0,0-13.44,14.58,44.34,44.34,0,0,0-4.91,21.24,45.33,45.33,0,0,0,4.91,21.24,36,36,0,0,0,33.3,20Z"/><path class="cls-2" d="M1369.56,212.36V75.61h30.92V106L1398,101.5q4.77-15.33,15-21.36t24.5-6h8v29.16h-11.82q-14.07,0-22.62,8.68t-8.55,24.25v76.17Z"/><path class="cls-2" d="M1463.57,212.36V22.07h32.93V146.75L1483.94,143l64.35-67.37h41l-50.52,55.05,51.53,81.7h-37.71l-44.74-70.89,19.6-4-41.22,44.24,10.3-20.11v50.78Z"/><path class="cls-2" d="M582.26,419.38a82.75,82.75,0,0,1-33-6.54,76.89,76.89,0,0,1-26.15-18.22,71.52,71.52,0,0,1-16-27.28L535.51,355q6.78,16.08,19.61,25.26a48.41,48.41,0,0,0,28.9,9.17,39.16,39.16,0,0,0,15.71-2.89A24.21,24.21,0,0,0,610,378.65a20,20,0,0,0,3.65-12.06,19.61,19.61,0,0,0-4.91-13.7q-4.89-5.4-14.7-8.42l-36-11.57q-21.87-6.78-32.93-20.36t-11.06-31.92q0-16.08,7.92-28.41A53.39,53.39,0,0,1,544.18,233q14.21-6.9,32.55-6.91A79.07,79.07,0,0,1,607.65,232a72.8,72.8,0,0,1,24.26,16.34,66.81,66.81,0,0,1,15.21,24.51L619,285.39q-5.54-14.07-16.6-21.74A43.89,43.89,0,0,0,576.73,256a37.08,37.08,0,0,0-15.08,2.89,24.07,24.07,0,0,0-10.18,8.05,21.67,21.67,0,0,0,1.38,25.89q5,5.91,15.34,9.18l34.44,10.8Q625,320.1,636.18,332.9t11.19,31.68a49.64,49.64,0,0,1-8.3,28.4,56.39,56.39,0,0,1-22.87,19.36Q601.62,419.38,582.26,419.38Z"/><path class="cls-2" d="M737.61,417.87q-23.13,0-35.82-12.7T689.1,369.35V309H665.47V279.61H668q10,0,15.58-5.28T689.1,259V248.44H722v31.17h31.42V309H722v58.57a25.67,25.67,0,0,0,2.38,11.57,16,16,0,0,0,7.54,7.29q5.16,2.51,13.2,2.51a39.68,39.68,0,0,0,4.15-.25l4.65-.5v28.15q-3.53.5-8,1A77,77,0,0,1,737.61,417.87Z"/><path class="cls-2" d="M820.06,419.38q-14.32,0-24.88-4.78a36.21,36.21,0,0,1-22.13-34.44,40.51,40.51,0,0,1,5-20.23q5-8.93,15.59-15t26.64-8.55l44.75-7.29v25.14l-38.46,6.54q-9.81,1.76-14.58,6.28a15.53,15.53,0,0,0-4.78,11.82,13.34,13.34,0,0,0,5.41,11.18,21.38,21.38,0,0,0,13.44,4.15,37,37,0,0,0,18.23-4.4,31.33,31.33,0,0,0,12.32-12.19,34.18,34.18,0,0,0,4.4-17.09v-35.2a18.57,18.57,0,0,0-6.92-14.7q-6.92-5.91-18.22-5.91a32.1,32.1,0,0,0-18.73,5.66,32.71,32.71,0,0,0-11.94,14.95l-26.9-13.07A47.54,47.54,0,0,1,791,293.56a64,64,0,0,1,20.48-12.44,71.06,71.06,0,0,1,25.64-4.52q16.85,0,29.67,6.15a48.32,48.32,0,0,1,20,17.1Q894,310.78,894,325.36v91H862.8V393l7-.5a55.46,55.46,0,0,1-12.56,14.71,53.53,53.53,0,0,1-16.6,9.05A64.22,64.22,0,0,1,820.06,419.38Z"/><path class="cls-2" d="M938.46,416.36V309H914.33V279.61h24.13v-4.52q0-15.58,6.41-26.52a42.28,42.28,0,0,1,18-16.72q11.56-5.78,27.4-5.78a65.62,65.62,0,0,1,6.66.38q3.65.38,6.16.88v28.4a36.13,36.13,0,0,0-4.65-.63c-1.43-.08-2.72-.12-3.89-.12q-11.07,0-17.1,4.9t-6,15.21v4.52h59.83V309H971.39V416.36Zm99.54,0V309h-24.13V279.61H1038v-4.52q0-15.58,6.29-26.52a41.33,41.33,0,0,1,18-16.72q11.68-5.78,27.53-5.78a65.62,65.62,0,0,1,6.66.38,52.15,52.15,0,0,1,5.9.88v28.4a29,29,0,0,0-4.39-.63q-2.14-.12-3.9-.12-11.07,0-17.09,4.9t-6,15.21v4.52h59.83V309h-59.83V416.36Zm80.44,0V279.61h32.93V416.36Z"/><path class="cls-2" d="M1179,416.36V279.61h30.92v26.9l-2.51-4.78A36.1,36.1,0,0,1,1223.14,283q10.93-6.42,25.51-6.41a54,54,0,0,1,26.77,6.53,46.45,46.45,0,0,1,18.23,18.23q6.52,11.68,6.53,27v88h-32.93V336.17a32.38,32.38,0,0,0-3.52-15.58,25.71,25.71,0,0,0-9.67-10.18,30.21,30.21,0,0,0-28.79,0,25.42,25.42,0,0,0-9.8,10.18,32.38,32.38,0,0,0-3.52,15.58v80.19Z"/><path class="cls-2" d="M1394.45,471.66a78.48,78.48,0,0,1-28.41-5,67.85,67.85,0,0,1-22.5-14,52.85,52.85,0,0,1-13.7-21l30.67-11.56a28.48,28.48,0,0,0,11.94,15.46q8.92,5.91,22,5.91a39.75,39.75,0,0,0,17.72-3.77,28,28,0,0,0,11.94-10.94q4.28-7.16,4.27-17.22V378.4l6.29,7.54a46.81,46.81,0,0,1-18.86,18.61,56.38,56.38,0,0,1-26.89,6.28q-19.11,0-34.19-8.8a62.82,62.82,0,0,1-23.63-24.13,69.49,69.49,0,0,1-8.55-34.44q0-19.35,8.55-34.44a63,63,0,0,1,23.38-23.75q14.82-8.67,33.68-8.67,15.33,0,27,6.41a54,54,0,0,1,19.48,18.47l-4.53,8.3V279.61h31.17v130a59.66,59.66,0,0,1-8.67,31.93A61.39,61.39,0,0,1,1429,463.62Q1414.05,471.66,1394.45,471.66Zm-1.51-91.25a35.67,35.67,0,0,0,18.47-4.65,33.06,33.06,0,0,0,12.45-12.94,39.34,39.34,0,0,0,4.52-19.11,38.61,38.61,0,0,0-4.65-19,33.94,33.94,0,0,0-30.79-18,36.62,36.62,0,0,0-18.6,4.78,33.79,33.79,0,0,0-12.95,13.19,38.61,38.61,0,0,0-4.65,19,37.91,37.91,0,0,0,4.65,18.86,34.24,34.24,0,0,0,12.82,13.07A36.44,36.44,0,0,0,1392.94,380.41Z"/></g></g></svg>