<svg xmlns="http://www.w3.org/2000/svg" viewBox="0 0 191.18 52.79" x="0px" y="0px"
	 width="191.18px" height="52.79px"><title>Avanti Residential is a multifamily real estate company that owns and manages apartments throughout Colorado, Utah and Arizona.</title><defs><style>.cls-1{fill:#97a3ae;}.cls-2{fill:#323e48;}</style></defs><title>avanti-logo</title><g id="Layer_2" data-name="Layer 2"><g id="Content"><path class="cls-1" d="M34.33,1.78A.87.87,0,0,1,35.17.5h5a.9.9,0,0,1,.84.54l9.5,21.27h.35L60.39,1A.91.91,0,0,1,61.23.5h5.05a.87.87,0,0,1,.84,1.28L51.79,35.07a.91.91,0,0,1-.85.54h-.49a.89.89,0,0,1-.84-.54Z"/><path class="cls-1" d="M111.82.89a.93.93,0,0,1,.94-.89H114l20.58,21.86h.05V1.43a.93.93,0,0,1,.94-.93h4.55a1,1,0,0,1,.94.93V34.72a.94.94,0,0,1-.94.89h-1.19l-20.67-22.7h0V34.17a.94.94,0,0,1-.94.94h-4.5a1,1,0,0,1-.94-.94Z"/><path class="cls-1" d="M159.63,6.43h-7.56a.94.94,0,0,1-.94-.94V1.44a.94.94,0,0,1,.94-.95h21.61a1,1,0,0,1,.94,1V5.49a1,1,0,0,1-.94.94h-7.57V34.18a1,1,0,0,1-.94.93h-4.6a1,1,0,0,1-.94-.93Z"/><rect class="cls-1" x="184.71" y="0.49" width="6.48" height="34.62" rx="0.94"/><path class="cls-1" d="M102.38,33.83,87.14.54A.84.84,0,0,0,86.3,0h-.49A.89.89,0,0,0,85,.54l-8,17.38,6,1.07,2.94-6.58H86L95.8,34.13a1.41,1.41,0,0,0,1.43,1h4.3A.87.87,0,0,0,102.38,33.83Z"/><path class="cls-1" d="M75.16,21.76,69.58,33.83a.87.87,0,0,0,.84,1.28h4.31a1.48,1.48,0,0,0,1.43-1l4.36-9.77Z"/><polygon class="cls-2" points="72.56 27.39 75.66 20.75 89.31 23.1 72.56 27.39"/><path class="cls-2" d="M28.06,52.71l-5.15-3.88v3.88h-.66v-9.2h3.1c3.38,0,3.69,1.58,3.69,2.77,0,1.77-1,2.66-3.59,2.66H23.9l5.27,3.77Zm-2.68-8.64H22.91v4.34h2.54c2.77,0,2.93-1.16,2.93-2.13S28.14,44.07,25.38,44.07Z"/><path class="cls-2" d="M37.7,52.71v-9.2h6.14v.56h-5.5v3.66h5.07v.54H38.34v3.88h5.5v.56Z"/><path class="cls-2" d="M56,52.79c-3.05,0-4.06-1.48-4.06-3.37h.65c0,1.5.79,2.8,3.38,2.8s3.13-1.11,3.13-2.06c0-2.77-6.8-.86-6.8-4.09,0-1.75,1.37-2.63,3.55-2.63s3.75,1,3.75,3.22h-.63c0-1.88-1.35-2.66-3.15-2.66s-2.88.66-2.88,2c0,2.63,6.8.86,6.8,4.08C59.69,51.34,58.93,52.79,56,52.79Z"/><path class="cls-2" d="M68.23,52.71v-9.2h.67v9.2Z"/><path class="cls-2" d="M81,52.71H77.77v-9.2h3.4c2.66,0,4,1.58,4,4.54S83.73,52.71,81,52.71Zm0-8.64H78.41v8.1h2.52c2.37,0,3.6-1.39,3.6-4.12S83.38,44.07,81,44.07Z"/><path class="cls-2" d="M93.73,52.71v-9.2h6.15v.56h-5.5v3.66h5.07v.54H94.38v3.88h5.5v.56Z"/><path class="cls-2" d="M115.65,52.71,109,44.24v8.47h-.65v-9.2h.84l6.59,8.42V43.51h.65v9.2Z"/><path class="cls-2" d="M128.25,44.07v8.64h-.63V44.07H124.5v-.56h6.87v.56Z"/><path class="cls-2" d="M139.43,52.71v-9.2h.66v9.2Z"/><path class="cls-2" d="M156.16,52.71l-.92-2.12h-5.6l-.92,2.12h-.67l4-9.2h.83l4,9.2Zm-3.7-8.64-2.62,6h5.23Z"/><path class="cls-2" d="M164.83,52.71v-9.2h.65v8.66h4.24v.54Z"/><path class="cls-1" d="M32.89,33.83,17.66.54A.85.85,0,0,0,16.82,0h-.5a.9.9,0,0,0-.84.54l-8,17.38,6,1.07,2.94-6.58h.15l9.79,21.72a1.42,1.42,0,0,0,1.44,1h4.3A.87.87,0,0,0,32.89,33.83Z"/><path class="cls-1" d="M5.68,21.76.1,33.83a.87.87,0,0,0,.84,1.28h4.3a1.5,1.5,0,0,0,1.44-1L11,24.36Z"/><polygon class="cls-2" points="3.07 27.39 6.17 20.75 19.82 23.1 3.07 27.39"/></g></g></svg>
