<svg xmlns="http://www.w3.org/2000/svg" width="140" height="46" fill="none" xmlns:v="https://vecta.io/nano"><path d="M76.923 0c.285.133-.171.971-.247 1.142-.209.381-.514.742-.78 1.066l.952-.685.609-.419c.095-.057.362-.343.476-.305.209.038-.266.78-.343.856-.285.343-.628.628-.99.894.266-.152 1.941-.933 1.998-.837.038.057-.247.476-.304.552-.152.19-.324.362-.495.533-.076.076-.209.152-.267.247-.038.057-.019.076-.038.152a.67.67 0 0 1-.267.419c.19.057.133.247.095.381-.057.19-.209.305-.228.495-.019.171.019.228-.095.381-.057.076-.152.133-.19.209-.076.152.038.305-.038.495-.076.152-.247.266-.304.419-.019.057 0 .133-.019.19-.057.209-.304.362-.343.552-.019.057.019.133-.019.209s-.076.114-.095.19.019.152-.019.228c-.057.19-.228.285-.381.381.285.152.095.324-.114.438-.171.095-.133.095-.133.285 0 .133-.038.228-.152.305s-.133.114-.209.209c-.095.095-.209.095-.324.171-.171.133-.019.419-.152.609-.095.133-.267.095-.324.266-.038.152 0 .267-.114.4-.095.095-.247.114-.324.209-.057.057-.057.19-.076.267a.37.37 0 0 1-.171.209c-.038.019-.133.019-.171.076-.114.133-.057.266-.247.362-.114.057-.19.057-.266.152s-.076.171-.209.228c.628-.095 1.18-.304 1.789-.514l.571-.228c.19-.095.381-.228.59-.305.4-.133.59.228.381.533.209.057.381.171.362.419a.49.49 0 0 1-.343.419c.247.057.628.209.647.495.038.285-.19.438-.438.552.171.076.438.228.438.457-.019.4-.457.609-.799.571.171.114.457.362.476.59 0 .057-.038.095-.038.133l.019.076c-.038.114-.095.171-.228.228-.152.076-.362.076-.476.152s-.019.114.019.228c.095.247.076.533-.209.59-.114.057-.076.095-.133.19s-.133.076-.209.114c-.076.057-.114.171-.209.209-.114.038-.285.019-.381-.019.076.171.076.247-.019.4-.095.171-.209.171-.343.228-.095.038-.076.076-.209.076-.038 0-.095-.019-.133-.019-.095 0-.095-.038-.133.019-.057.076-.057.247-.133.343-.114.171-.266.266-.476.285-.095 0-.19-.019-.285-.019-.247 0-.019-.038-.114.019-.152.095-.228.285-.438.342s-.438-.038-.609-.171c-.114.247-.247.362-.495.419-.285.076-.552-.019-.666-.323-.133.171-.685.533-.894.304-.133-.133-.095-.723-.114-.913-.038-.666.019-1.542-.343-2.132-.076-.133-.095-.114-.228-.057-.057.019-.152.019-.19.057-.095.038-.057.038-.152.114-.133.114-.266.019-.381.095-.076.038-.076.171-.19.228-.114.038-.266-.038-.381.057-.019.019-.019.076-.019.095-.076.095-.095.171-.228.209-.076.019-.171-.019-.247 0s-.095.095-.152.133c-.19.152-.362.019-.571.019s-.171.114-.267.285-.228.171-.362.247c-.095.057-.171.114-.285.152-.057.019-.133 0-.209.019-.114.038-.114.076-.209.171-.171.171-.305.19-.514.19-.152 0-.209.114-.343.209-.19.114-.305.076-.476.057-.095 0-.114.019-.228.076-.076.038-.152.057-.228.076-.057.019-.171-.019-.209 0-.057.019-.038.057-.095.095-.171.133-.343.19-.552.133-.152-.038-.19-.057-.343.038-.133.076-.247.209-.419.171-.114-.019-.114-.057-.228-.038-.095.019-.209.114-.285.152-.209.114-.381.152-.628.152-.324 0-.59.209-.913.247-.171.019-.381-.038-.533.019-.133.057-.267.133-.438.171-.057.019-.114.038-.19.038-.038 0-.095-.076-.114-.076s-.114.076-.152.095c-.152.095-.266.228-.438.305s-.343.114-.495.209c-.114.057-.228.171-.228 0 0-.076.114-.19.152-.247.095-.171.171-.343.247-.514l.285-.647c-.247.209-.476.438-.761.571a2.01 2.01 0 0 1-.457.114c-.095 0-.305.076-.4.057-.228-.057.228-.4.305-.476.267-.247.571-.495.78-.799-.247.133-.514.228-.799.247-.152.019-.304 0-.457-.019-.114-.019-.381-.038-.457-.114-.095-.114.171-.095.209-.095.19-.019.362-.076.533-.152.285-.133.628-.305.818-.533-.324.057-.666.057-.971-.038-.133-.038-.266-.114-.4-.152-.057-.019-.4-.133-.267-.209.057-.019.248.076.305.095.171.038.343.057.533.057.343-.019.723-.171 1.028-.362-.476 0-1.066-.114-1.389-.514-.057-.076-.171-.228 0-.19.038 0 .171.152.228.171.076.038.152.095.228.133.78.362 1.675-.209 2.341-.552 1.085-.571 2.265-.99 3.407-1.408l2.607-.971c.076-.038.171-.057.228-.095.133-.076.133-.076.038-.209-.057-.057-.095-.114-.171-.114-.057 0-.038.133-.114.019-.209-.286.305-.628.476-.704.742-.343 1.618-.495 2.265-1.028.343-.267.552-.742.78-1.123l.799-1.313c.514-.894.894-1.922 1.58-2.722a18.4 18.4 0 0 0 1.085-1.332c.4-.514.685-1.123 1.009-1.675a5.93 5.93 0 0 0 .438-.933c.057-.133.19-.799.362-.666.209.152.057.818.019.99-.057.305-.152.571-.247.875a5.18 5.18 0 0 0 .552-.723l.514-.761.495-.78c.171-.266.324-.704.552-.894.171-.133.152.095.171.266.019.247-.076.552-.152.78-.19.533-.514.99-.78 1.484.438-.362.799-.837 1.218-1.218l.685-.704c.038-.076.514-.723.571-.704z" fill="#bababa"/><g fill="#181c24"><path d="M.72 40.843h1.351c1.104 0 1.732.476 1.77 1.77v1.561c-.038 1.275-.666 1.77-1.77 1.77H.72v-5.1h0zm.971 4.225h.343c.533 0 .837-.248.837-1.009v-1.332c0-.723-.247-1.009-.837-1.009H1.69v3.35zm2.949.856v-5.081h2.664v.856H5.611v1.161h1.294v.856H5.611v1.332h1.77v.857H4.64v.019zm5.653-3.654c-.171-.476-.381-.685-.704-.685-.343 0-.533.209-.533.552 0 .761 2.17.818 2.17 2.417 0 .875-.59 1.446-1.618 1.446-.78 0-1.408-.438-1.656-1.427l.952-.209c.114.609.457.837.761.837a.56.56 0 0 0 .59-.609c0-.952-2.17-.971-2.17-2.398 0-.875.514-1.427 1.523-1.427.875 0 1.389.514 1.561 1.237l-.875.267zm1.827 3.654v-5.081h.971v5.081h-.971zm4.339-.419c-.267.305-.533.495-.914.495-.952 0-1.599-.457-1.599-1.713v-1.808c0-1.256.666-1.713 1.599-1.713.99 0 1.523.571 1.561 1.732h-.971c0-.647-.247-.875-.59-.875-.381 0-.628.152-.628.723v2.074c0 .571.247.723.628.723.362 0 .59-.266.59-.704v-.305h-.685v-.799h1.656v2.607h-.495l-.152-.438zm1.542.419v-5.081h1.066l1.351 3.007h.019v-3.007h.895v5.081h-.933l-1.484-3.273h-.019v3.273h-.895zm10.124-2.341c-.171.419-.343.857-.609 1.275.209.133.438.247.704.285V46c-.495 0-.799-.114-1.275-.514-.323.324-.78.514-1.275.514-.971 0-1.656-.476-1.656-1.408 0-.704.362-1.085.856-1.408-.266-.4-.419-.723-.419-1.142 0-.876.609-1.275 1.294-1.275s1.199.514 1.199 1.142c0 .647-.514 1.028-.971 1.408a5.88 5.88 0 0 0 .914 1.028c.19-.323.362-.647.457-.99l.78.228zm-2.417 1.618c.266 0 .514-.114.647-.285-.381-.343-.723-.704-1.009-1.085-.209.171-.362.343-.362.628a.69.69 0 0 0 .723.742zm-.457-3.292c0 .305.114.514.285.799.266-.247.609-.476.609-.876 0-.209-.152-.476-.457-.476-.285.019-.438.248-.438.552zm5.653 4.015v-5.081h1.351l.876 3.331h.019l.876-3.331h1.351v5.081h-.837v-3.997h-.019l-1.028 3.997h-.704l-1.028-3.997h-.019v3.997h-.837zm5.082 0l1.256-5.081h1.237l1.218 5.081h-.933l-.247-1.066h-1.351l-.266 1.066h-.913zm1.389-1.922h.971l-.476-2.055h-.019l-.476 2.055zm5.158 1.922l-.837-2.075h-.457v2.075h-.971v-5.081h1.408c1.161 0 1.732.571 1.732 1.523 0 .628-.228 1.085-.761 1.294l.951 2.265h-1.066 0zM41.22 43.05h.495c.438 0 .685-.209.685-.704s-.266-.704-.685-.704h-.495v1.408zm2.949 2.874v-5.081h.971v2.093h.019l1.256-2.093h1.066l-1.313 2.056 1.466 3.026h-1.085l-1.009-2.132-.381.571v1.561h-.99 0zm3.902 0v-5.081h2.664v.856h-1.694v1.161h1.294v.856h-1.294v1.332h1.751v.857h-2.721v.019zm6.47-5.081v.856H53.4v4.225h-.971v-4.225h-1.142v-.856h3.254zm.628 5.081v-5.081h.971v5.081h-.971zm1.961 0v-5.081h1.066l1.351 3.007h.019v-3.007h.894v5.081h-.932l-1.484-3.273h-.019v3.273h-.894zm6.68-.419c-.266.305-.533.495-.913.495-.952 0-1.599-.457-1.599-1.713v-1.808c0-1.256.666-1.713 1.599-1.713.99 0 1.522.571 1.561 1.732h-.971c0-.647-.247-.875-.59-.875-.381 0-.628.152-.628.723v2.074c0 .571.247.723.628.723.362 0 .59-.266.59-.704v-.305h-.685v-.799h1.656v2.607h-.514l-.133-.438zM7.933 37.379c-.247-.152-.552-.362-.761-.552-.209-.247-.343-.59-.362-.932-.057-.362-.038-.799-.038-1.142a1.73 1.73 0 0 1 .152-.742c.152-.305.19-.59.247-.894.095-.305.285-.533.4-.799l.438-1.009c.095-.285.285-.533.438-.78.19-.285.209-.609.343-.894.285-.59.704-1.237.704-1.903 0-.533-.305-1.047-.894-1.047-.609 0-1.199.495-1.58.933l-1.2 1.425c-.4.457-.609 1.009-.856 1.58-.304.609-.4 1.256-.685 1.903-.209.59-.552 1.142-.761 1.732l-.704 1.789c-.209.609-.495 1.104-1.237 1.237-.152.038-.285-.038-.457-.038-.152 0-.285.038-.4 0-.209-.057-.533-.209-.647-.4-.152-.247-.038-.457.095-.704l.343-.99.647-1.827c.095-.305.247-.59.305-.895.095-.305.247-.552.4-.856.114-.247.114-.533.209-.799.114-.343.285-.685.457-1.009.114-.285.285-.552.4-.837.152-.305.19-.609.305-.933.114-.304.114-.533.152-.799.038-.095.038-.19.038-.305 0-.057 0-.114-.038-.19 0-.152-.19-.362-.19-.533 0-.305.285-.457.685-.533l.799-.095c.495-.038.933-.285 1.237-.247.305 0 .457.305.438.59-.038.152-.152.457-.152.685 0 .152 0 .285.285.285.19 0 .362-.152.533-.342a2.5 2.5 0 0 1 .647-.552 6.43 6.43 0 0 1 .837-.495 3.94 3.94 0 0 1 1.789-.438c.609 0 1.199.304 1.599.761.343.4.552.933.552 1.427 0 .19-.038.343-.057.533l-.609 1.884c-.247.609-.609 1.142-.856 1.751l-.152.438c-.095.095-.19.114-.247.209-.057.114-.057.305-.095.438-.038.19-.114.304-.19.495-.343.609-.495 1.199-.438 1.941.038.285.095.457.362.59.152.095.305.114.457.114s.286-.038.438-.057c.247-.095.438-.304.647-.457.114-.095.247-.248.4-.343.095-.057.152-.095.247-.209.4-.457.799-.952 1.104-1.484a9.64 9.64 0 0 0 .495-.837c.152-.247.305-.457.495-.837.057-.114.19-.247.285-.209.304.038.685.609.609.761-.19.438-.362.647-.495.894-.362.59-.761 1.104-1.199 1.637-.438.59-.952 1.199-1.504 1.694-.457.4-.932.742-1.446.952-.285.114-.533.285-.78.343-.343.095-.685.095-1.009.114-.4-.019-.704-.076-.971-.19zm-5.443-5.12l.038-.057v-.19h-.095l-.285.209-.038.114.038.038.114.038.228-.152zm.228.609l-.038-.057-.305.152.057.038.152.057.133-.19zm.647-1.256l-.038-.038-.285-.038-.152.19.038.057.305.095.133-.266zm.19-.343h-.076l-.057.114v.095h.038l.095-.209zm.609-.78H4.05v.095l.114.038v-.133zm.514-1.618h-.095v.114h.114l-.019-.114zm3.331 4.377l.152-.057v-.057l-.247-.19-.038.057-.057.209.038.057.152-.019zm.228 1.408l.038-.057-.114-.038-.209-.209-.038.057.038.038.247.209h.038zm.247-.438l-.114-.552-.247-.038-.095-.057h-.057l-.038.038.285.209.057.095-.095.209.038.057.247.057.019-.019zm-.247 1.465l.038-.114-.19-.057-.038.038.114.209.076-.076zm.247.362v-.057l-.247-.152-.038.095.247.152.038-.038zm.457-2.683l-.038-.305.152-.114-.038-.095-.438-.362-.038-.057.038-.114.114-.057.209.209.057-.038v-.038l-.209-.152-.038-.057v-.057l.152-.362.19-.152.19-.038h.038l.057.095-.038.057-.209.19.057.285-.057.152.209.19.057-.038v-.209l.095-.057.285.285.095-.038v-.095l-.095-.19v-.057l.362-.533v-.057l-.114-.209v-.343l-.114-.4-.095-.038-.057.19.038.114.114.304v.057l-.114.038-.343-.19-.038-.057.038-.095-.038-.095-.095.038-.095.152h-.095l-.095-.152-.057-.038-.038.038.057.19-.057.114-.152.152-.038.247-.152.209-.19.057v.057l.095.152.038.038-.038.057-.095.152.209.438-.038.095-.095.152-.038.19.038.057h.247l.057.038.038.19h.038l.114-.095zm.114 2.341v-.248h-.038l-.038.038v.19l.038.057.038-.038zm.095-1.732l.038-.247-.057-.057-.095.057.038.114.057.114h.019v.019zm.285-3.559l.057-.095.057-.19.057-.038.247.038-.038-.114.038-.057.247-.19h.057l.038.057.038.114.057.038.114-.095.247-.095.209-.285-.038-.057-.59.209-.114-.038-.057-.095v-.19l.057-.038h.19l-.057-.095-.095-.057h-.057l-.285.286-.285.095-.038.152-.095.114v.038l.095.114v.038l-.038.057-.247.19-.038.057v.057l.095.095.171-.019zm.343 1.465l-.095-.057-.152-.209-.19-.114-.095-.152.038-.114.038-.038h.095l.247.209h.285l.038.057v.038l-.057.114v.247l-.038.038h-.114v-.019zm-.343.095l-.038-.038v-.152l.038-.038h.114l.038.057v.114l-.038.038h-.114v.019zm1.484-3.102l-.095-.19v-.095l.114-.247-.057-.057-.342.495h-.114l-.095-.057-.114-.19-.095-.038-.152.038-.038.114.057.114.19-.095h.038l.057.038.114.209.057.038.476-.076zm-.4-1.085v-.057l-.038-.038-.305.057.038.057.095-.038h.057l.114.095.038-.076zm0 3.102v-.057l-.057-.152.095-.343.095-.095v-.057h-.057l-.342.285-.038.057.19.285.038.152h.057l.019-.076zm.247-3.559l-.038-.038h-.057v.057l.038.057h.095l-.038-.076zm.609 1.37l-.095-.095h-.095l-.114.209h.095l.209-.114zm0-1.465l-.057-.038-.19.19.038.095.095.038.114-.285z"/><path d="M14.822 36.903c-.305-.152-.647-.362-.856-.647-.247-.304-.343-.704-.495-1.047-.19-.457-.4-.895-.4-1.427 0-.304.057-.609.152-.932l.305-1.142c.114-.4.4-.857.552-1.237.152-.362.4-.704.59-1.047.152-.362.305-.742.59-1.047.209-.305.495-.552.78-.837.114-.095.114-.19.209-.286.095-.114.247-.152.362-.247.305-.305.59-.609.99-.837.343-.209.704-.457 1.085-.59l1.294-.343c.209-.057.438-.152.685-.152h.457c.095-.038.19-.038.285-.038.362 0 .742.114 1.085.305.362.19.647.438.856.704.285.343.438.799.533 1.237l.152.59c.095.247.095.457.095.647s-.095.362-.114.59c0 .209 0 .4-.038.609-.057.4-.114.837-.248 1.199-.095.362-.209.704-.362 1.047-.038.057-.095.247-.209.495-.057.19-.152.343-.152.4 0 .038 0 .057.057.057s.209-.038.438-.152a3.44 3.44 0 0 0 .952-.59c.304-.209.533-.438.78-.704l.343-.457c.438-.685.647-1.237.78-1.58.209-.495.4-1.142.552-1.637.152-.533.209-1.142.247-1.656.038-.304-.095-.685-.095-1.009 0-.247 0-.495-.038-.742-.038-.19-.095-.305-.095-.457 0-.095.038-.152.095-.247.114-.247.362-.343.647-.362l1.009-.19 1.142-.286h.152c.286 0 .4.209.4.457 0 .4-.533 1.142-.609 1.58-.038.19-.057.343 0 .457.057.19.209.285.4.362.114.057.285.114.4.114.286 0 .4.057.609.057.59 0 .933-.114 1.504-.114.285 0 .59-.095.894-.095.209 0 .4.038.552.152.152.095.19.19.19.343 0 .305-.343.704-.495.99-.285.457-.533.99-.704 1.503-.19.457-.533.837-.704 1.256-.19.533-.495.952-.704 1.446-.4.894-.894 1.827-.894 2.836 0 .742.343 1.294 1.104 1.294.438 0 .78-.305 1.104-.59.856-.685 1.637-1.503 2.189-2.436l.685-1.294s.095-.114.209-.095c.152.057.305.209.438.343.114.095.285.19.285.285 0 .038 0 .057-.038.095-.038.095-.152.305-.4.704-.152.304-.247.362-.362.609s-.285.495-.438.704c-.19.247-.4.457-.609.704l-1.009 1.237c-.19.209-.438.362-.647.552-.19.152-.362.362-.59.495-.209.114-.457.19-.704.285-.285.057-.552.19-.837.285-.19.038-.362.057-.552.057a2.75 2.75 0 0 1-1.104-.247c-.495-.209-.799-.4-1.085-.856s-.533-.99-.533-1.503.152-1.047.285-1.542c.114-.552.285-1.142.495-1.694.152-.457.362-1.009.647-1.427.305-.495.552-1.047.837-1.542.114-.247.285-.457.4-.704.095-.19.247-.4.247-.609 0-.247-.095-.285-.305-.4-.19-.057-.304-.095-.438-.095-.152 0-.305.038-.533.038-.19 0-.362-.038-.533.057-.19.095-.343.342-.495.495-.342.4-.495.99-.647 1.485l-.362.799-.59 1.104c-.4.742-.495.933-.742 1.237-.4.552-1.18 1.446-1.789 1.789-.343.152-.647.247-.99.362-.362.152-.742.285-1.142.343-.19.038-.362.114-.609.362a2.98 2.98 0 0 1-.495.457c-.4.533-1.085 1.009-1.656 1.332-.685.362-1.637.742-2.398.837-.095.038-.209.038-.305.038-.742.076-1.389-.305-1.979-.647zm.818-6.528l.057-.038.038-.114-.038-.057-.114.038-.057.057-.038.095.038.038h.114v-.019zm3.235 4.491c.209-.209.362-.457.362-.685 0-.247-.305-.495-.4-.761-.209-.457-.4-.952-.59-1.485-.095-.209-.057-.457-.095-.704-.038-.305-.057-.609-.057-.952 0-.247.038-.533.038-.761 0-.209 0-.495-.286-.495-.209 0-.4.19-.495.362-.19.247-.285.59-.362.799-.114.305-.343.609-.4.895-.038.152-.038.305-.095.457s-.152.285-.19.438c-.114.305-.114.609-.209.894-.038.152-.057.495-.095.761l-.095.59c.038.095.038.248.057.343.038.285.095.533.247.742a1.25 1.25 0 0 0 .952.438c.571 0 1.275-.438 1.713-.876zm-2.284-5.938l.305.038.057-.038v-.114h-.248l-.209-.152h-.057l-.057.057.038.209.057.038.114-.038zm1.96-.495v-.247l.152-.209v-.095h-.095l-.362.247h-.114l-.038-.038-.038-.305-.305-.285-.19.247-.152.095h-.152l-.304-.095-.095.095.038.095.19.152.057.114-.038.19.038.038.647-.647.057.038.057.343.19.247.114-.114.057-.038.247.247.038-.076zm1.922 3.997c.209-.209.552-.99.704-1.351.19-.457.362-1.009.457-1.503.095-.457.209-.99.209-1.446 0-.286.057-.533.057-.761 0-.152-.038-.342-.114-.533-.19-.362-.457-.647-.895-.647-.533 0-.895.362-1.142.799-.285.457-.362 1.047-.533 1.58-.095.19-.057.495-.057.837v1.142c0 .057-.038.114-.038.19 0 .114.038.209.057.362l.305.742c.152.305.305.704.609.704.133-.019.247-.019.381-.114zm-.932 1.066l-.095-.114v.095l.057.057.038-.038zm.095 1.846v-.095h-.095v.095h.095zm.742-2.093v-.095l-.114-.038h-.114l-.152.095h-.057l-.114-.057-.057.038.038.095.038.038.247.038.285-.114zm.095 1.465l.038-.057-.114-.095-.038-.114v-.057l.095-.057.057-.038.209.057v-.095l-.095-.4.038-.095.038-.057h.057l.152.038.304-.438-.038-.19v-.057l.152-.057-.057-.152-.152-.095-.19-.038-.285.4.038.114.038.057.209.038.057.057-.038.152-.038.038-.438.095-.304-.095-.19.057-.152.095-.038.057v.057l.038.038.057.095.114-.247.038-.038h.057l.114.038.209.19v.057l-.114.19-.247.152v.114l.285.285h.133 0zm1.009-.609l-.114-.4-.095.057v.057l.095.305.114-.019zm.742-1.427l.038-.038.095-.343.057-.095.19-.057.038-.057.038-.152.209-.152.114-.438-.057-.038-.304.247h-.133l-.247-.247-.152-.685-.057.038-.038.19.114.285-.095.095-.209.038.038.114.057.038h.247l.057.095-.114.152-.038.152-.038.038-.095-.038-.114-.095v.152l-.038.095-.057.038-.209-.114h-.057l-.057.114v.305l.057.095.114.114.057-.038.038-.209.057-.038.095.038.152.209v.114l-.057.114h.038l.266-.038zm-.4.19l-.057.038-.19.4v.095l.057.038h.095l.095-.571zm.285-.647l-.038-.057.057-.114.095-.057.152-.057.057.038v.114l-.038.057-.152.095-.114.038-.019-.057zm.761-2.398l.209-.285-.057-.057-.495.343-.019.095.057.038.304-.133zm-.152 1.294l.209-.209v-.057l-.209-.095-.019-.076.038-.305-.038-.038-.19.152v.114l.152.209v.114l-.038.114.038.038h.057v.038zm.285-2.284v-.114l-.095.038-.209.19.057.038.247-.152zm.209 1.446l.038-.057v-.114h-.057l-.095.209.038.038.076-.076zm4.815-4.377l.095-.305.209-.095.038-.057.038-.209.114-.038h.057l.114.095.057.095.038.057-.038.057-.057.038-.209.095.038.057.152-.057.247-.19-.038-.114-.856-.761h-.057l-.057.095-.057.304.038.114.305-.152.057.038v.114l-.343.761v.095l.057.038.057-.076zm1.047 7.765l.247-.4.59-.152.095-.057-.114-.247-.038-.304.038-.057.247-.152.057.038.247.343v.057l-.152.19-.038.114.057.114.095-.038.152-.209-.038-.285-.114-.343v-.057l.152-.114.247-.59.209-.19.038-.209.152-.19.038-.057-.038-.095h-.057l-.095.152h-.114l-.038-.038-.095-.19-.057-.038h-.19l-.552.286.038.057.59-.209.057.038.095.057v.057l-.4.761h-.076l-.114-.095-.057-.285-.343-.095-.057.19-.057.038-.209.057-.038.038-.152.305.095.19.057.038.209-.057.343-.343h.057l.038.038-.057.457-.438.152-.095.095.057.114.152.095.038.038-.057.152-.095.152h-.057l-.152-.095-.057.286-.038.038h-.114l-.038-.038.057-.685v-.038l-.038.038-.057.114-.114.057.038.209-.152.343.209.438h0v.019zm.152 1.542v-.114h-.114v.114h.114zm0-1.066l-.038-.152-.057-.114v.304l.095-.038zm.895.457v-.057l-.152-.114-.038-.057v-.076l.038-.057.209-.152.038-.038-.038-.457-.038-.038-.4-.057-.343.152v.057l.057.114.038.038h.038l.057-.209.057-.057h.114l.152.057.114.152v.057l-.19.248-.19.057-.038.057.362.4h.038l.114-.019zm-.095.856l-.285-.114-.152.038v.057l.4.057.038-.038zm.057-3.388v-.114l.057-.038h.114l.038.038v.114l-.038.038h-.114l-.057-.038zm.495-1.751l-.248-.152h-.057l-.038.114.038.038.114.057h.19v-.057zm.19-.476l.038-.057.362-.038.4.247h.095l.038-.19.114-.152.057-.343.038-.057.095-.038.038-.057-.057-.095-.095.038-.285.286-.247.057.038.114-.095.095-.095.038-.362-.095-.209.285.057.095.095.038v-.171h-.019zm.438-.495l-.286-.209-.038-.114.095-.095-.095.038-.209.19.038.057.495.209v-.076zm.114.837l-.038-.095-.038-.057-.343.057.209.247.209-.152zm1.142-1.446l.095-.152-.038-.038-.209.114h-.057l-.057-.057-.19-.209-.343-.038-.057-.038-.038-.057-.114-.285-.247.19-.038.114.533.209.095.114.152-.057h.057l.057.038.152.209h.057l.19-.057zm-.99 0l-.057-.057h-.057v.095l.114.057v-.095z"/><path d="M36.633 37.379c-.533-.152-.933-.343-1.256-.742-.19-.209-.209-.438-.304-.685s-.209-.438-.286-.704c0-.152-.038-.304-.038-.457 0-.438.095-.857.152-1.332a2.57 2.57 0 0 1 .209-.609c.095-.209.095-.457.19-.685.19-.59.552-1.104.742-1.694.095-.247.209-.438.343-.647.152-.247.152-.533.247-.761.095-.209.247-.438.343-.647.152-.285.152-.59.247-.894.038-.19.209-.495.209-.647 0-.209-.209-.247-.4-.438-.19-.152-.78-.19-.78-.457 0-.209.19-.59.304-.704a.61.61 0 0 1 .343-.095c.152 0 .362.057.533.057l.114-.038c.209-.038.4-.19.552-.305.362-.343.495-.894.647-1.351l.609-1.503c.19-.457.4-1.009.4-1.504 0-.19-.038-.438.038-.647.038-.285.152-.533.438-.609.19-.057.4-.038.59-.095.285-.095.552-.038.837-.095.247-.038.552-.19.837-.19a.53.53 0 0 1 .4.152c.114.095.152.247.152.4 0 .362-.209.837-.343 1.104-.095.209-.152.438-.209.647-.095.286-.247.438-.362.685-.285.438-.343 1.009-.533 1.485-.19.4-.495.742-.495 1.142 0 .495.305.704.704.704.114 0 .286-.038.4-.038h.152c.247.095.4.342.4.59a.57.57 0 0 1-.114.343c-.114.095-.362.114-.59.114h-.19-.057a2.14 2.14 0 0 0-.856.152c-.685.209-.742.552-.99 1.199-.19.495-.552 1.104-.704 1.637-.095.305-.285.609-.342.952-.095.285-.114.495-.286.761-.304.495-.495 1.104-.647 1.656-.095.343-.19.704-.343 1.047-.114.248-.247.457-.247.742 0 .59.4 1.18.933 1.18.285 0 .609-.114.895-.152.209-.057.647-.285.856-.438.247-.114.4-.285.647-.4.304-.114.533-.285.742-.495.343-.343.609-.742.952-1.085.19-.19.362-.343.495-.552.343-.552.457-.894.609-1.142.038-.095.095-.114.209-.114.095 0 .247.152.304.19.152.114.457.285.362.533-.209.59-.856 1.389-1.237 1.884l-.856 1.18c-.343.438-.99.856-1.351 1.256-.209.209-.362.362-.647.457a2.63 2.63 0 0 0-.647.343c-.533.343-1.085.285-1.694.362-.285.038-.552.095-.799.095-.171 0-.362-.038-.533-.095zm.247-1.085l.247-.647.095-.114-.057-.057-.114-.038-.057-.095-.438-.114-.19-.247-.095-.057-.057.057.095.247.114.095.057.057.057.247.057.095.305.152.038.057v.057l-.114.114v.114l.038.057h.019v.019zm-.247-.704v-.114h.114v.114h-.114zm.856-3.92v-.057l-.057-.057-.057.038-.095.209.057.057.152-.19zm.628 4.587l-.59-.19-.057.038-.038.057.038.057.343.038h.304zm-.323-7.232l.304-.704.095-.057.114.057v.362l.19-.057.057.038.095.095h.057l.4-.78-.038-.038-.343.4h-.114l-.209-.209v-.247l-.095-.038h-.057l-.057.057-.057.209-.038.038h-.057l-.247-.152-.057.038v.095l.209.285v.114l-.285.362v.038l.038.114.095-.019zm.076 1.313l.152-.152-.038-.057-.114-.057-.095.209.038.095.057-.038zm.305-.609l.152-.209.209-.152.057-.057-.095-.057h-.152l-.152.248-.095.038-.19.038-.038.038v.038l.19.114h.114v-.038zm.209-2.189l.19-.19.152-.057-.057-.095-.209-.19-.362.038-.057.038-.038.343.285.152.095-.038zm-.304-.209v-.114l.038-.057h.114l.057.038v.152l-.057.038h-.114l-.038-.057zm.438-1.618l-.095-.057h-.114l-.095.038.038.095h.057l.209-.076zm.057 1.028v-.095l-.095-.038-.095-.095h-.114l-.057.057.304.152h.057v.019zm.305 1.047l.038-.057-.057-.038-.057.057v.057h.057l.019-.019zm.457-.438l.095-.114v-.057l-.095-.057-.19-.038-.057-.038-.057-.209-.057-.057-.038.057v.19l.057.095.285.247h.057v-.019zm0-1.104l.038-.057-.209-.152-.057.038-.038.095.038.057.19.057.038-.038zm.19-.438l.057-.152.057-.038h.114l.057.038.095.152h.095l.685-.856-.038-.305-.038-.057-.152.057-.057-.038-.057-.095.038-.438.057-.095.152-.095v-.533l.095-.114-.095-.152-.114-.114-.305.095h-.057l-.038-.114.057-.114v-.057h-.057l-.209.342v.095l.095.095.209.057.038.057v.057l-.057.095-.152.095h-.057l-.095-.19h-.057v.057l.038.095.057.095.304.19.038.057v.057l-.209.533.304.19.057.152v.114l-.057.038h-.152l-.095.4-.057.038h-.057l-.647-.114-.038.038.095.343.114.095h.038v-.057zm.19-1.009l-.095-.438-.114-.114-.095.038v.114l-.095.152.038.057.304.209.057-.019zm.514-.952l-.038-.057v-.114l.114-.114h.114l.057.057v.038l-.095.19-.114.038h-.038v-.038zm.133-.628l.114-.038v.114l-.114.038v-.114zm.514 2.493l.038-.057-.286-.19-.095.038-.057.038v.057l.057.095.057.038.095.038.19-.057zm.152-2.931l-.114-.114-.038-.057.19-.4.095-.095-.057-.057h-.057l-.285.343v.305l.057.095.114.038.095-.057z"/><path d="M49.555 37.436c-.704-.304-1.104-.895-1.256-1.637a.92.92 0 0 1-.057-.343c0-.647.4-1.332.552-1.979.095-.343.152-.647.343-.99.152-.362.247-.742.438-1.085.095-.152.19-.247.285-.4.095-.19.114-.362.209-.552.152-.362.362-.704.533-1.085.152-.362.343-.761.362-1.18 0-.152.038-.362.038-.552 0-.152-.038-.305-.114-.4-.19-.305-.438-.438-.704-.438-.457 0-1.009.4-1.504.857s-.933.99-1.142 1.199c-.209.285-.457.457-.609.761a6.15 6.15 0 0 0-.495 1.085c-.285.761-.647 1.503-.857 2.303-.095.362-.247.742-.4 1.104l-.19.343c-.114.19-.114.362-.19.59-.095.343-.285.685-.4 1.009-.152.343-.248.647-.495.932-.19.247-.362.4-.647.4-.057 0-.095-.038-.114-.038-.19 0-.362-.057-.552-.095s-.362 0-.552-.095c-.285-.114-.533-.305-.533-.59 0-.457.285-.99.457-1.332.19-.304.305-.59.438-.933.114-.342.095-.78.286-1.104.095-.114.19-.209.209-.4.038-.152 0-.247.095-.4l.304-.438.285-.685c.114-.305.19-.685.305-.99.19-.4.438-.704.495-1.104.057-.362.285-.704.4-1.047.114-.4.152-.704.438-1.085.209-.305.247-.685.362-1.009l.552-1.199c.19-.343.305-.704.4-1.085.095-.438.285-.742.438-1.142.247-.799.59-1.637.933-2.436.19-.4.457-1.085.457-1.58 0-.247-.285-.4-.285-.647 0-.4.704-.343 1.047-.457.4-.152 1.009-.343 1.427-.4.152-.038.438-.247.609-.247.152 0 .285.038.4.114s.152.209.152.362c0 .19-.095.362-.152.552s-.19.4-.19.609c0 .095-.19.495-.209.609l-.533 1.351c-.285.742-.704 1.446-.99 2.189-.152.343-.285.533-.495.837-.095.114-.095.285-.152.438-.057.209-.152.438-.247.647-.114.343-.4.99-.4 1.351 0 .114.057.209.152.209.4 0 .704-.209.99-.438.304-.247.704-.457 1.047-.609.343-.19.685-.248 1.047-.248.438 0 .99.152 1.351.343.285.152.4.4.59.647.095.152.209.343.286.533.114.247.095.343.095.609a3.18 3.18 0 0 1 .038.59c-.038.19-.114.362-.19.552l-.457 1.732c-.304.647-.552 1.351-.933 1.979a5.54 5.54 0 0 0-.495.856c-.209.343-.304.742-.4 1.142-.095.285-.152.552-.152.837 0 .114 0 .247.038.362.114.4.533.495.933.495.304 0 .59-.19.856-.343.362-.152.457-.285.742-.552.285-.305.4-.533.533-.894.152-.362.438-.609.704-.933.095-.114.305-.457.495-.799l.457-.837c.038-.057.114-.057.209-.057.152 0 .304.095.457.209.114.095.209.209.209.362 0 .057 0 .114-.038.19l-.495.857c-.152.285-.362.533-.438.609l-.647.952-.685.856c-.209.285-.4.609-.647.837-.285.286-.647.4-.952.59-.362.247-.704.533-1.142.685-.4.19-.856.285-1.294.285-.381.133-.742.076-1.047-.076zm-4.701-6.452l.057-.038h.057l.057.038.095.095h.057v-.057l-.285-.209-.247.038-.038.305.038.057h.057l.152-.228zm1.542-2.398l-.057-.342.038-.057.285-.19v-.095l-.038-.038-.095.038-.305.362.114.305h.057v.019zm.799-2.893l.038-.057-.152-.152-.057.038.057.209.114-.038zm.286 2.189v-.057h-.057l-.304.19-.038.057.038.057.362-.248zm.152-1.484l-.057-.286-.057-.038-.114.038.057.209-.038.057-.152.038v.038l.095.057.266-.114zm.095-.952l.438-.99v-.095l-.095-.057-.304.343h-.057l-.362-.114-.038.095.438.305.038.057-.038.114-.247.209.057.095.114.038h.057 0zm-.209 2.055l.342-.152.114-.438-.59-.057-.038.038-.057.095.209.247.038.095-.038.038h-.19l-.038.038.152.114h.095v-.019zm.4-3.654l.057-.095v-.038l-.038-.114-.457-.304-.057.095.038.095h.19l.152.114.038.286.076-.038zm.4-.438l-.057-.095-.038-.057h-.095l-.038.057.095.095h.133zm.247-.381l-.114-.704.057-.152.057-.038.247.152.038-.038-.038-.19.038-.19v-.038l-.247-.19h-.114l-.152.057.095.19v.114l-.114.152.038.704.057.114.152.095v-.038zm-.076-1.047l-.038-.038v-.114l.038-.038.057-.038h.114l.038.057v.114l-.038.057h-.114-.057zm.647-.4l.057-.095-.095-.057-.114.057v.114l.057.038.095-.057zm.381 13.36l.038-.095v-.343l-.114-.095-.114-.305-.057.038v.247l.209.304v.057l-.114.095.057.095h.095zm.057-1.523l.038-.362-.038-.038-.038.038-.095.4.095.057.038-.095zm.381.228l.038-.095-.057-.038-.057.057-.114.285v.038l.19-.247zm.114-.895l.152-.438.038-.038.362-.038.057-.057.114-.19.19-.095-.095-.438.095-.152.038-.038h.057l.095.038.057.038-.038.343.114.152.038.038.114-.057h.057l.057.057.057-.038-.057-.247.114-.285-.438-.248-.057.038-.742.552h-.095l-.152-.057-.114.057-.057.095-.038.152-.114.152.038.038.095.038.209-.114.057.057-.038.114-.19.152h-.19l-.057.038v.438h.114l.152-.057zm.438 2.36l.038-.057-.247-.152-.19-.343v-.057l.19-.343.095-.038h.057l.095.19-.057.19v.057l.038.038.114.057.038-.038.095-.304-.038-.114-.247-.285v-.114l.095-.114.362-.152.057-.152v-.114l-.304-.343-.038-.038.057-.285-.038-.038-.114.038-.114.114.038.19-.247.247.038.038.209-.095.057.038.038.038.038.057-.514 1.066h-.114l-.19-.285v.247l.343.552v.057l-.038.114v.057l.343.095.057-.019zm0-3.902l.285-.209.057-.095-.286-.095-.057-.095-.057.057v.438h.057 0zm.647-1.028l-.038-.095h-.114l-.19.285.057.095h.19l.095-.285zm.552.647l.343.057.057-.038-.038-.19.038-.057.19-.095-.038-.038-.095.038-.057-.038-.285-.285-.362-.152-.057.057.19.209.285.114.057.095v.057l-.057.038-.685-.095-.038.038v.114l.038.038.285.152h.057l.171-.019zm.514-.704l.114-.152v-.152l-.209-.19-.304-.114-.19-.305v-.304l-.038-.038-.038-.057-.114-.038-.095.057.247.4v.114l-.057.114-.152.038.038.095.057.038.19.038.533.457h.019 0zm-.076-1.18l.057-.114-.057-.057-.114-.038-.209-.209-.038-.114.057-.038.247.095h.114l.438-.342-.304-.4-.057-.038-.095.152-.038.362-.038.057h-.057l-.209-.095h-.057l-.057.038-.057.114v.057l.304.552.095.057.076-.038zm-.19-1.446l.057-.038-.038-.114-.038-.057-.095-.038-.038.095.057.209.095-.057zm.761 1.618l.038-.057-.057-.247.057-.152v-.076l-.038-.038H52.6l-.038.057.038.152-.114.247.095.095.095.038.038-.019z"/><path d="M62.554 36.941c-.305-.19-.647-.362-.857-.685-.247-.305-.343-.704-.495-1.047-.19-.457-.4-.894-.4-1.427 0-.304.095-.609.152-.932l.304-1.142c.114-.4.4-.856.552-1.237.152-.362.4-.704.59-1.047.152-.362.305-.742.59-1.047.247-.305.495-.552.78-.837.114-.095.114-.19.209-.286.095-.114.247-.152.361-.247.305-.305.59-.609.99-.837.343-.209.704-.457 1.085-.59l1.294-.343c.209-.057.457-.152.685-.152h.457c.095-.038.19-.038.285-.038.362 0 .742.114 1.104.305.343.19.609.438.837.704.285.343.438.799.533 1.237l.152.609c.095.209.057.4.095.609-.038.19-.095.362-.114.59 0 .209 0 .4-.038.609-.057.4-.114.837-.247 1.199-.095.362-.209.704-.362 1.047-.057.152-.247.457-.247.685 0 .343.152.59.362.59.495 0 1.294-.533 1.599-.761.285-.209.495-.438.742-.704l.343-.457c.095-.114.343-.457.457-.799.038-.114.152-.19.247-.19.19 0 .343.19.495.343.114.152.247.247.152.438-.343.761-.495.933-.742 1.237-.4.552-1.18 1.446-1.789 1.789-.343.152-.647.247-.99.362-.362.152-.742.285-1.142.343-.362.057-.78.057-1.085.057-.343.038-.533.209-.704.495-.4.533-1.009 1.009-1.599 1.332-.685.362-1.637.742-2.398.837-.095.038-.209.038-.304.038-.704.038-1.351-.343-1.941-.647zm.799-6.566l.057-.057.038-.114-.057-.057-.114.038-.038.057-.038.095.038.057h.114v-.019zm3.235 4.492c.209-.209.362-.457.362-.685 0-.247-.286-.495-.4-.742l-.59-1.484c-.095-.247-.057-.495-.095-.742-.038-.305-.057-.609-.057-.952 0-.247.038-.533.038-.761 0-.209 0-.457-.285-.457-.209 0-.4.19-.495.343-.19.247-.285.609-.362.799-.114.305-.343.609-.4.933-.038.114-.038.285-.095.438s-.152.285-.19.438c-.114.304-.114.609-.19.932-.057.114-.057.457-.114.742l-.095.59c.038.114.038.248.057.362.038.248.095.495.247.704.247.304.59.438.952.438.571-.019 1.294-.457 1.713-.895zm-2.303-5.976l.343.038.057-.038v-.114h-.247l-.209-.152h-.057l-.095.095.057.19.038.038.114-.057zm1.998-.495v-.247l.152-.209v-.095h-.095l-.362.285-.114-.038-.057-.038v-.305l-.305-.247-.19.209-.19.095-.114.038-.343-.114-.095.095.057.114.19.152.057.095-.038.19v.038l.647-.609h.057l.095.343.19.247.095-.114.057-.038.057.038.19.209.057-.095zm1.922 4.035c.209-.209.552-.99.704-1.351.19-.457.4-1.009.457-1.504.095-.457.209-.99.209-1.446 0-.285.057-.533.057-.761 0-.152-.038-.343-.114-.533-.19-.362-.457-.647-.895-.647-.495 0-.894.362-1.142.799-.285.457-.362 1.047-.533 1.58-.095.247-.038.609-.057 1.085v.895.19c0 .114 0 .247.038.362l.305.78c.152.286.304.685.609.685.114-.038.228-.038.362-.133zm-.933 1.028l-.095-.114-.038.095.095.057.038-.038zm.095 1.846v-.095h-.095v.095h.095zm.704-2.093v-.095l-.095-.038h-.114l-.152.095h-.057l-.114-.057-.057.038.038.095.038.038.209.038.304-.114zm.133 1.484l.038-.057-.114-.095-.038-.114v-.057l.095-.057.057-.038.19.057.038-.095-.114-.4.038-.095.057-.057h.057l.152.038.305-.438-.057-.19.038-.057.114-.057-.038-.152-.152-.095-.19-.038-.285.4.038.114.038.057.209.038.038.057v.152l-.038.038-.438.095-.305-.095-.209.057-.152.095v.152l.095.095.095-.247.057-.038h.057l.095.038.209.19v.057l-.095.19-.285.152.038.114.285.285h.076zm.971-.628l-.095-.4-.095.057-.038.057.114.305.114-.019zm.742-1.408l.057-.038.057-.343.095-.095.19-.057.038-.057.038-.152.19-.152.152-.438-.057-.038-.343.247h-.114l-.209-.209-.152-.704-.095.038v.19l.095.285-.057.095-.209.038.038.114.057.038h.247l.038.095-.095.152-.038.152-.057.038h-.095l-.114-.114.038.152-.057.095-.057.038-.209-.114h-.057l-.038.114v.304l.038.114.152.095h.057l.038-.247.038-.038.095.038.152.209.038.114-.057.114.038.038.133-.114zm-.362.19l-.095.038-.19.4.038.095.038.038h.095l.114-.571zm.247-.647v-.057l.038-.114.095-.057.19-.057.038.038v.114l-.038.057-.114.095-.114.038-.095-.057zm.609-1.123l.247-.209v-.057l-.247-.095-.038-.057.057-.305-.057-.038-.152.152-.038.057.038.057.114.209.038.114-.038.114.038.038h.038v.019zm.19-1.294l.19-.285-.038-.038-.495.305-.038.095.057.038.324-.114zm.114-.99v-.114l-.114.038-.19.19.057.038.247-.152zm.228 1.446l.038-.057v-.095l-.095-.038-.095.209.057.038.095-.057z"/><path d="M72.602 44.344c-.114-.038-.248-.038-.362-.038h-.305c-.209 0-.4-.038-.609-.114-.799-.533-1.104-1.332-1.104-2.341 0-.4.057-.609.209-1.009l1.142-3.787.78-1.789c.285-.59.343-1.199.552-1.827.19-.59.647-1.085.894-1.637s.4-1.18.647-1.751c.533-1.18.704-1.941 1.142-3.178.209-.609.799-1.637.952-2.284s.438-.895.609-1.542l.837-2.246.704-1.998c.095-.533-.152-.552-.152-.952 0-.209.305-.305.609-.343a3.6 3.6 0 0 1 .59-.057h.19l1.009-.19c.095-.038.495-.209.59-.209.362 0 .495.19.495.552 0 .095 0 .247-.038.362-.114.609-.4 1.199-.647 1.751s-.362 1.18-.609 1.694c-.247.552-.609 1.085-.761 1.694l-.495 1.751c-.209.609-.533 1.142-.742 1.732-.095.247-.248.552-.248.704 0 .286.095.59.495.59.305 0 .99-.533 1.199-.533.114 0 .247.19.247.285 0 .19-.095.533-.19.933l-.209 1.751a3.78 3.78 0 0 0-.038.533c0 .362.057.895.285 1.199.285.4.685.609 1.142.609.647 0 1.389-.609 1.789-1.199.19-.305.362-.609.685-1.256.038-.057.095-.095.152-.095.152 0 .285.095.438.19.152.114.285.209.285.343 0 .247-.4 1.142-.533 1.351-.285.495-.761 1.18-1.256 1.446-.533.343-1.237.495-1.846.495-.438 0-.837-.247-1.199-.247-.19 0-.285 0-.438.19-.285.342-.362 1.085-.457 1.58-.114.647-.152 1.256-.4 1.884l-.742 1.732c-.247.609-.552 1.142-.837 1.732-.305.59-.552 1.142-.952 1.656-.343.533-.837.933-1.332 1.332-.457.362-1.047.647-1.656.647l-.514-.095zm-.761-5.462v-.095h-.057l-.038.057.038.095.057-.057zm.495-1.161l.209-.19h.057l.095.152h.057l.057-.19.038-.038.057-.038.362.095.038-.038.038-.209.438-.343.057-.19-.038-.038-.285.114-.038.038-.038.152-.038.038h-.057l-.247-.114-.038-.038v-.19l-.038-.057h-.076l-.095-.057-.247-.4-.095.038-.038.057.038.114.114.038.038.057-.038.114-.304.209-.038.114v.114l.247-.057.038-.057.057-.095.057-.038h.038l.209.057.209.209v.095l-.038.057-.209-.038-.114.057-.343.057-.305.247v.057l.095.038h.114v.095zm2.284 4.187c.305-.304.552-.647.799-1.009l.799-1.351c.457-.761.799-1.599 1.142-2.436l.438-1.294c.114-.438.152-.856.19-1.332.038-.4.114-.799.19-1.237.057-.343.095-.704.095-1.085 0-.209 0-.209-.038-.438-.057-.209-.152-.495-.247-.704-.095-.19-.19-.304-.285-.438-.095-.095-.114-.362-.304-.362-.114 0-.362.495-.457.742l-.438 1.18-.647 1.351c-.152.4-.247.799-.362 1.199-.152.495-.362.933-.609 1.351l-.59 1.351c-.209.457-.495.933-.59 1.446l-.343 1.542c-.057.286-.152.495-.285.742-.114.209-.285.438-.285.799 0 .19.095.362.247.457.114.095.247.114.4.114.457.019.894-.285 1.18-.59zm-1.637-5.919l-.038-.095-.095-.038-.057.095.057.057h.057l.076-.019zm1.009.266l.114-.095.038-.114-.209.095-.647-.343-.038.038.038.038.19.209.457.209.057-.038zm-.514.286v-.095l-.095-.038-.095.095.038.057h.057l.095-.019zm.723-2.246h.038v-.057l-.209-.057-.343-.362h-.057l-.095.057v.057l.038.114.057.057.19.038.038.038.038.19.038.038.266-.114zm-.057 1.161v-.095l-.209.095h-.057l-.209-.19-.038.095v.152l.038.038.247.095.228-.19zm.876-1.941l.038-.4-.362-.057-.057.057.038.152-.038.057-.057.095v.057h.209l.19.057.038-.019zm.057-.799l-.038-.095v-.057l.057-.057.438-.095v-.095l-.209-.343-.057-.038-.057.038-.209.209-.19.038v.057l.114.4.095.095.057-.057zm2.208-3.825l.057-.095V28.7l-.057-.095-.114-.095-.038.114-.114.152.095.095.152.038.019-.019zm.343-2.493l-.038-.057-.4-.038-.038.095.4.343.076-.343zm-.305-.799v-.095h-.095v.095h.095zm1.085.209l.19-.438v-.247l.152-.114.038-.038v-.362l-.4-.761-.19.038-.305-.19h-.057l-.4.438.114.285v.057l-.247.247v.057l.209.152.057-.038.343-.4h.057l.152.038h.057l.038-.057v-.152l.038-.095.057-.038h.057l.114.114.095.286-.038.152.038.19-.038.057-.19.095.038.247-.038.057-.19.114-.038.095v.114l.095.152h.057l.133-.057zm-.628 2.227l.057-.057-.038-.038-.152-.038-.057-.038-.057-.057h-.019v.038l.057.114.114.057h.095v.019zm0-.552v-.114l-.076-.114-.095.057.038.114.057.057h.076zm-.019-3.083l-.038-.057v-.133l.152-.209.114-.038.057.038.057.095v.114l-.057.114-.114.114h-.095l-.076-.038zm.514 4.682l.057-.114-.038-.038-.095.038h-.057l-.038-.038-.057-.038.038-.685-.057-.038-.304.552v.057l.152.057.343.304.057-.057zm.133-5.862l-.038-.152.095-.114.114-.057h.114l.209.305.057-.038-.038-.095-.285-.285-.305.114-.114-.038-.247-.19-.038.057.152.114v.057l-.038.209.247.114h.114zm-.057-.685l.038-.285-.152-.152-.057-.19-.057.4.057.095.114.114h.057v.019zm1.047.419l.247-.552-.304-1.009-.057-.038-.209.114-.095.095-.038.343-.095.095-.057.038-.038-.038-.114-.59.247-.247.343-.114v-.114l-.304-.114-.152.095-.038.038v.19l-.038.057-.114.057-.152.285v.057l.152.152.038.057-.114.285.038.057.362.152.038.038.038.114-.038.19.038.095.4.285.019-.076zm-.59.476l-.114.038-.095.095v.038h.095l.209.19-.095-.362zm.209 10.239l.057-.095-.095-.438-.114.057-.038.095.152.362h.038v.019zm.038-11.362l-.057-.152v-.057l.057-.038.152-.038.114.038.038.038v.114l-.057.114-.114.038-.133-.057zm.057-.438l-.057-.114v-.057l.095-.095.114.038.038.038.057.095-.057.114-.114.038-.076-.057zm.343-1.523l.209.038v-.057l-.057-.038-.438.038-.057.038-.038.057v.114l.114.038.267-.228zm-.133 12.561v-.19l-.038-.095-.057.057-.057.152.057.057h.095v.019zm.095-13.227l-.038-.209v-.114h-.038l-.114.285.038.057.057.057.095-.076zm.476-.875l-.057-.095-.057-.038h-.114l-.095.095.038.057h.095l.19-.019zm0 2.074l.057-.038.285.057.057-.057.114-.457-.304-.285-.057.057.19.247v.114l-.038.057-.647.152.095.285.038.038.209-.171zm.114.457v-.095l-.038-.038-.057.095v.095l.095-.057z"/><path d="M90.15 37.226c-.285-.247-.647-.457-.856-.78-.285-.4-.4-.856-.552-1.332-.152-.4-.305-.837-.305-1.256 0-.457.095-.933.114-1.389.038-.457.285-.895.438-1.332l.552-1.351c.4-.799.952-1.599 1.542-2.284.59-.704 1.142-1.256 1.979-1.656.4-.209.856-.362 1.294-.533.209-.057.457-.152.685-.19h.114c.152 0 .285.038.438.038.209 0 .4-.095.609-.095.247 0 .457.038.704.095.438.114.837.438 1.047.837.209.343.286.78.286 1.199 0 .533-.095 1.085-.247 1.542-.304.856-.856 1.656-1.599 2.227-.78.59-1.484 1.047-2.474 1.18l-.647.114h-.152c-.152 0-.305-.038-.495-.038-.4 0-.857.057-1.085.438-.095.19-.114.4-.114.647s.038.495.038.704c.057.4.152.856.4 1.18.247.362.685.552 1.104.59.495 0 1.009.038 1.485-.095.457-.095.894-.209 1.294-.4.457-.209.856-.552 1.294-.856.305-.209.685-.59.952-.837.362-.343.704-.856 1.009-1.256.209-.304.552-.761.78-1.256.038-.038.038-.038.057-.038.057 0 .114.038.209.114.191.152.495.495.533.647 0 .057-.038.095-.057.152l-.362.704-.704 1.085c-.304.457-.704.856-1.104 1.256-.685.704-1.542 1.256-2.398 1.789-.99.552-2.151 1.009-3.14 1.009-.837 0-1.979-.057-2.665-.571zm0-5.71l.59-.761h.285v-.19l.114-.057.247.247v.057l-.038.038-.247.209v.057l.19.057.057.057v.152l.038.057.19-.438-.057-1.085-.038-.038-.248.057v.152l-.114.057-.209-.095-.095.095-.305.038-.057-.038-.057-.114-.095.038-.038.19-.038.038-.057.038h-.19l-.057.038-.114.495.095.057.057-.095.095-.286.057-.057.609-.152.095.057.038.057-.247.19-.362.685h-.057l-.19-.038-.057.038-.114.19v.057l.343.095-.019-.152zm.895-1.675v-.152l.057-.114v-.095h-.057l-.038.152-.095.038-.19-.038-.19.19.038.038.248.114.228-.133zm.19 6.566l.305-.19-.038-.057h-.19l-.343.248-.343-.057-.038.038.095.095.4.114.152-.19zm.362-7.061l-.095-.247.095-.057.209.038.038-.057-.152-.19v-.362l.095-.057.247.19.038-.038v-.247l-.152-.095v-.152l.4-.343.057-.038.057.038.114.152h.057l.095-.304-.285-.305h-.038l-.305.343-.362.057-.057.057v.057l.095.152v.209l-.095.152-.152.038-.057.152h-.114l-.152-.057h-.057l-.114.342.057.057.209-.114.057.038.095.057.057.095-.038.095-.114.152.209.247.057-.057zm-.095 7.651l-.038-.152h-.038l-.038.038-.038.209h.095l.057-.095zm.133-5.329l-.057-.057-.114-.057.057.114.095.057.019-.057zm.304 5.062l.457-.057.114-.114-.038-.057-.209.057-.057-.038-.285-.285-.4.533.247.095.171-.133zm2.493-6.357c.495-.343.856-.799 1.142-1.332.247-.495.362-1.047.362-1.599 0-.685-.19-1.047-.742-1.047-.609 0-.951.438-1.332.856-.4.495-.856.895-1.142 1.485-.114.286-.247.552-.4.856-.114.285-.361.59-.361.933 0 .4.4.552.837.552.59 0 1.18-.4 1.637-.704zm-.514 6.128l-.038-.095-.095-.057-.095.057-.038.095.057.038.209-.038zm2.398-6.376l.057-.247-.438.095.038.057.209.19.133-.095zm.4-.247l.038-.19.248-.247-.057-.19.057-.114.152-.057-.038-.095-.095-.057-.343.285-.114.057-.4-.057v.057l.152.095.095.057-.038.057-.095.057h-.305v.057l.362.095.057.057v.095l.209.038h.114 0zm.285-1.389l.057.038.248.247h.038l.095-.057.152-.248-.038-.038-.19.095h-.057l-.038-.038-.19-.247h-.362l-.057-.038-.038-.057-.057-.152h-.057l-.038.209.038.057.19.095.057.095-.057.095-.285-.038.038.305.038.038.514-.362zm.514-.704l-.095-.095.057-.285h-.457l-.114-.057h-.057l-.057.038v.095l.114.095.285.438h.095l.228-.228zm-.495-1.047l-.038-.038-.114.057v.057h.114l.038-.076zm.095 1.104l-.038-.114.057-.057h.095l.038.038v.114l-.038.038h-.114v-.019zm.495-.552l.038-.057v-.095l-.057-.114-.095-.057-.038.057.095.304.057-.038z"/><path d="M100.446 37.588c-.343-.038-.704-.038-1.009-.209-.305-.152-.609-.438-.837-.685-.247-.304-.305-.647-.305-.99 0-.362.057-.742.114-1.085.057-.4.095-.78.247-1.142.114-.343.209-.685.4-.99.343-.647.609-1.332.856-1.998.285-.704.647-1.351.837-2.094.095-.362.153-.742.286-1.085.038-.095.095-.209.095-.343 0-.038 0-.057-.038-.114-.038-.114-.057-.247-.057-.362 0-.038 0-.095.038-.114.038-.362.209-.552.552-.609l1.142-.19c.437-.057.837-.209 1.256-.209.19 0 .361.057.495.209.057.095.095.19.095.285 0 .209-.153.495-.248.685-.114.343-.285.647-.437.99-.115.343-.191.704-.305 1.085-.095.362-.247.742-.4 1.104l-.932 2.151-.933 2.036c-.057.209-.114.438-.114.685 0 .114.038.247.057.4.114.305.4.552.761.552.286 0 .552-.114.8-.247.342-.152.552-.362.837-.609.114-.114.248-.209.362-.304.114-.114.209-.305.304-.438.095-.152.191-.247.305-.343.152-.114.285-.4.361-.552.21-.286.495-.837.705-1.142.152-.209.209-.343.361-.647.038-.095.095-.114.19-.114a1.14 1.14 0 0 1 .438.304c.152.114.248.305.248.362 0 .038 0 .057-.038.114-.039.152-.191.362-.248.533-.057.19-.304.343-.533.761-.19.305-.361.59-.609.856-.209.285-.495.495-.704.799l-.285.4c-.153.114-.305.247-.438.4l-.799.742c-.286.209-.552.438-.857.59-.342.19-.704.285-1.047.438l-.533.152c-.057.038-.152.038-.247.038 0-.019-.095-.095-.19-.057zm-.514-2.055l.038-.095-.343-.038-.038.057.114.114.152.038.076-.076zm.361-.343l-.095-.095-.095.057-.038.057v.095l.228-.114zm.457-2.912l-.038-.304-.304.038-.095.209.038.038.304.095.095-.076zm.723-.761l.058-.19.114-.038.095.038.038.057v.152l.057.038.057-.057.038-.114-.114-.305.038-.19-.095-.038-.095.038-.038.057-.057.19-.115.057-.114-.057-.095-.152-.038-.114.19-.305.057-.038.248.095.114-.038.19-.19.153-.057v-.057l-.305-.247-.533.057.038.305-.209.285-.038.038-.19-.038-.058.038-.057.19-.095.095-.171.038-.038.038.114.4.057.057.057-.038-.038-.114.038-.038.038-.057.191-.038.304.057.057.095.038.152.114-.057zm-.437 4.986l.095-.095.19-.457v-.057l-.095-.095-.114-.038h-.152v.095l.19.095v.19l-.247.286v.038l.095.057h.038v-.019zm.19-4.396l.114-.362-.342.152.152.209h.076zm.799-2.322v-.095l-.114-.057-.057-.114-.342.095v.095l.114-.038.342.152.057-.038zm-.095-.99l-.247-.19-.095.114.057.095.285-.019zm.647.4l-.057-.114-.114-.114-.095.095v.152l.095.038h.095l.076-.057zm-.133.875l-.038-.19h-.057l-.038.095.057.095h.076zm.286-1.427l.095-.209-.305-.114-.038.057.057.285.095.057.096-.076zm-.153-6.87c0-.59.305-1.18.762-1.542a1.61 1.61 0 0 1 1.084-.438c.305 0 .609.114.895.343.4.343.609.856.609 1.389 0 1.047-.799 1.732-1.732 1.751-.856 0-1.618-.495-1.618-1.503zm.495 5.881v-.152l-.152-.19-.038.038-.038.095-.038.057-.095.057.285.19.076-.095zm1.808-5.633v-.362l-.304-.209-.057.038.247.552.038.038.076-.057zm.324-.133l-.038-.038-.21.114.057.057h.057l.134-.133z"/><path d="M101.987 45.143c-.437-.343-.837-.761-.837-1.237a2.99 2.99 0 0 1 .095-.704c.095-.552.343-1.142.704-1.656.457-.685 1.352-1.237 2.037-1.541.685-.285 1.351-.609 2.093-.742.362-.057.704-.209 1.047-.304.4-.114.799-.095 1.199-.209.552-.114 1.294-.19 1.599-.704.095-.19.647-1.427.647-1.789v-.114c0-.152-.038-.247-.21-.247s-.361.247-.647.552c-.209.209-.495.457-.837.685a3.28 3.28 0 0 1-.952.304c-.304.057-.647.19-.951.19-.4 0-.704-.305-.99-.495-.304-.209-.609-.4-.799-.704-.286-.552-.362-1.142-.362-1.751 0-.685.114-1.827.533-2.493.362-.609.533-1.332.933-1.903.095-.152.209-.285.285-.457.057-.095.057-.209.095-.305.095-.152.248-.19.343-.285.152-.152.19-.343.285-.533.343-.609.857-1.237 1.332-1.732.552-.552 1.199-1.009 1.847-1.427.342-.209.742-.362 1.103-.362.248-.038.457-.038.705-.038.19 0 .361 0 .532.057.305.095.59.305.8.533.209.247.342.856.685.856.209 0 .343-.209.457-.4.209-.285.152-.552.495-.647.19-.057.609-.038 1.008-.095.286 0 .552-.095.704-.095.286 0 .362.152.362.457 0 .285-.305.837-.438 1.085-.152.362-.285.742-.361 1.142-.21.78-.533 1.485-.8 2.227-.114.343-.304.647-.437.99-.153.343-.21.704-.362 1.047s-.285.647-.362.99c-.095.4-.247.609-.456.952-.191.285-.286.609-.438.895-.114.247-.438.932-.438 1.18 0 .19 0 .438.209.438.286 0 .933-.609 1.199-.799.552-.438 1.085-.932 1.58-1.427.533-.495.952-1.18 1.351-1.789.21-.304.438-.552.895-1.332.057-.114.19-.152.304-.152.153 0 .343.095.457.209.152.114.248.305.152.457-.209.438-.456.799-.552.933-.285.457-.647 1.104-1.084 1.637l-.609.78c-.21.285-.495.438-.685.704a1.74 1.74 0 0 1-.743.647c-.304.19-.533.343-.761.609-.533.533-1.199.761-1.846 1.085-.609.305-.895.799-1.199 1.389l-.514.875c-.19.285-.247.609-.438.895-.152.247-.399.438-.552.704-.152.247-.285.533-.456.742-.21.247-.495.362-.743.59-.285.285-.494.533-.856.704-.305.152-.59.304-.856.495-.343.285-.609.4-1.009.533-.742.209-1.485.552-2.284.609-.78 0-1.618-.19-2.208-.704zm.457-1.979l.152-.19.038-.114-.057-.647-.057-.057-.247.247h-.095l-.057.038.038.057h.057l.19-.038.057.038-.057.704.038-.038zm.571-1.294l.038-.19.114-.057.038-.19.115-.19v-.114l-.057-.038-.058.038-.304.247-.076.152-.114.152.209.285.095-.095zm1.218 2.626c.761-.038 1.504-.209 2.132-.742.247-.247.437-.533.685-.742.247-.285.552-.438.761-.742.19-.285.343-.59.495-.895.19-.304.609-1.142.609-1.542 0-.152-.057-.19-.152-.19-.191 0-.457.114-.704.114-.153 0-.286.038-.438.057-.362.114-.704.305-1.009.495s-.59.247-.894.4c-.343.152-.647.4-1.009.552-.343.114-.457.247-.647.533-.4.609-.857 1.047-.857 1.884 0 .209.039.457.21.59.19.152.533.209.761.209h.057v.019zm-.361-3.426l.038-.038-.096-.152.039-.114h-.096l-.19.095v.057l.247.152h.058 0zm.361-.304l.057-.095.095-.057h.305l.038-.038v-.095l-.057-.057-.095-.038-.609.343.209.057.057-.019zm2.379-8.298l.038-.247-.038-.057-.095-.057-.038.114-.114.057-.21-.038-.057.095-.038.209.095.057.153.038.304-.171zm.209.628l-.057-.057-.285.152.095.057h.095l.152-.152zm-.057 1.199l-.114-.247.038-.209-.095-.038-.038.095.057.362.057.038h.095zm.686-2.474v-.038l-.286-.038-.095.057-.095.152.304.095.172-.228zm3.102 2.189c.209-.285.437-.457.59-.799.19-.362.304-.761.533-1.142.152-.343.399-.647.59-1.009.152-.343.361-.609.551-.933.191-.305.248-.685.343-1.009.095-.438.305-.856.305-1.332 0-.533-.248-1.18-.895-1.18s-1.18.495-1.503.951c-.495.59-1.047.952-1.352 1.656-.361.799-.932 1.504-1.256 2.322-.399.895-.685 1.846-.685 2.836.057.609.305 1.18.952 1.18 1.008 0 1.332-.895 1.827-1.542zm-1.751-4.834v-.057l-.038-.057-.038-.038h-.191l-.19-.095-.057.095.057.057h.152l.248.152.057-.057zm.152-1.028l-.057-.095h-.114l.038.095.057.038.076-.038zm1.922 10.886l.057-.057v-.057l-.247-.285-.038-.285-.038-.038-.114.438.19.057.038.209.095.038.057-.019zm1.656-2.684v-.114l-.038-.057-.152-.19v-.095l.038-.057.285-.095.038-.038v-.038h-.399l-.038-.038-.039-.057v-.057l.362-.895-.114-.609.038-.057.038-.038h.209l.057-.038.248-.4-.038-.19v-.038l.152-.057-.038-.114-.457-.362-.038-.038v-.114l.114-.057.191.152.057.038.19-.057h.057l.114.095.057.038.21-.114h.057l.038.038.038.114-.4.742.038.057.096.057.057-.038.152-.59.285-.152.038-.057.039-.152.095-.247v-.038h-.21l-.038-.038.057-.095.191-.152h.057l.114.038.057-.152v-.114l-.304-.362-.153-.704-.095.038-.038.209.114.305-.057.095h-.114l-.247-.152v-.152l-.058-.095-.095.057-.095.114h-.057l-.152-.19h-.057l-.114.038-.058.038v.057l.115.038.057.038v.114l-.153.209v.114l-.209.343h-.057l-.152-.038-.114.343.038.19-.038.038-.248.114-.114.114.057.114.057.038.057-.114.286-.19h.057l.038.038.209.304-.038.057-.152.209v.114l.038.114.247.038.038.038.039.057v.057l-.058.095-.057.038-.456.057-.153-.057h-.19l-.114.038-.114.114.057.209.095.057.038-.285.038-.038.114-.038.21.095.095.152v.057l-.191.152-.095.057-.152-.038v.057l.038.114.438.59-.038.057-.191.038.038.247-.038.057-.152.095-.114-.038-.362-.247h-.437l-.038.057.057.057h.114l.152.095h.286l.057.057.038.247.095.038.114-.095h.114l.038.038.343.533.038.019zm-1.161.932v-.038l-.057-.057h-.038v.095l-.152.209v.095l.247-.305zm.057-.875l.057-.095-.095-.057-.114.038-.038.095.038.057.057.057.095-.095zm.114-1.941l-.095-.209-.057.038-.038.247h.152l.038-.076zm.647-1.009l.058-.057v-.057l-.115-.152-.057-.152-.19.305-.19.095v.057l.209.038.285-.076zm-.247 3.121l.038-.095-.114-.038-.057.095.057.057.076-.019zm.343-1.789l-.038-.057v-.114l.095-.057h.095l.057.038v.114l-.038.057-.057.038h-.114v-.019zm.133-2.417v-.114h.114v.114h-.114zm.552.152l-.038-.038-.057-.114.095-.362.209-.209.114-.038.114.038v.114l-.19.114-.038.057v.343l-.057.114h-.057l-.095-.019zm.342 1.865l-.057-.533h-.038l-.095.057-.038.057.152.4h.076v.019zm.172-3.768l.057-.095v-.114l-.038-.038-.115.038-.038.038-.038.114.057.114.115-.057zm-.153.952v-.095l.057-.057h.115l.19.19.057.038.209-.038.057.095-.114.152v.152l-.095.057-.476-.495zm.153.59l.038-.152.114.038v.114h-.152 0zm.494-1.827l-.057-.114.038-.057.057-.095.191-.114.057.038.038.038.038.152.057.038.343-.152.247-.305v-.057l-.647.209-.095-.057-.095-.095v-.038l.038-.057.038-.038.152-.057-.057-.114h-.095l-.362.304-.19.057-.095.247v.057l.399.285v-.076zm.305-1.465v-.095l-.095-.057h-.114l-.096.057v.095l.057.095.248-.095zm.438 2.189l-.191-.19v-.095l.114-.285h.058l.19.038.095-.038.057-.19v-.038h-.038l-.057.095-.057.038-.209-.038-.343.286-.038.057.038.057.152.209v.114l-.038.19.038.038.229-.247zm.133-2.017l.038-.057v-.209l-.038-.038-.21.247-.19.038v.114l.057.038h.057l.286-.133zm.514-.057l.057-.057-.095-.057-.096.057.039.057h.095z"/><path d="M124.064 37.436c-.704-.304-1.104-.895-1.256-1.637-.038-.095-.057-.209-.057-.343 0-.647.4-1.332.552-1.979.095-.343.152-.647.343-.99.152-.362.247-.742.437-1.085.095-.152.191-.247.286-.4.095-.19.114-.362.209-.552.152-.362.362-.704.533-1.085.152-.362.343-.761.362-1.18 0-.152.038-.362.038-.552 0-.152-.038-.305-.115-.4-.19-.305-.437-.438-.704-.438-.457 0-1.008.4-1.503.857s-.933.99-1.142 1.199c-.21.285-.457.457-.609.761-.21.362-.362.704-.495 1.085-.285.761-.647 1.503-.856 2.303-.096.362-.248.742-.4 1.104l-.19.343c-.115.19-.115.362-.191.59-.095.343-.285.685-.399 1.009-.153.343-.248.647-.495.932-.191.247-.362.4-.647.4-.057 0-.095-.038-.114-.038-.191 0-.362-.057-.552-.095s-.362 0-.552-.095c-.286-.114-.533-.305-.533-.59 0-.457.285-.99.457-1.332.19-.304.304-.59.437-.933.114-.342.095-.78.286-1.104.095-.114.19-.209.209-.4.038-.152 0-.247.095-.4s.21-.286.305-.438l.285-.685c.114-.305.191-.685.305-.99.19-.4.437-.704.495-1.104.057-.362.285-.704.399-1.047.114-.4.153-.704.438-1.085.209-.305.247-.685.362-1.009l.551-1.199c.191-.343.305-.704.4-1.085.095-.438.286-.742.438-1.142.247-.799.59-1.637.932-2.436.191-.4.457-1.085.457-1.58 0-.247-.285-.4-.285-.647 0-.4.704-.343 1.046-.457.4-.152 1.009-.343 1.428-.4.152-.038.438-.247.609-.247.152 0 .285.038.4.114.114.095.152.209.152.362 0 .19-.095.362-.152.552s-.191.4-.191.609c0 .095-.19.495-.209.609l-.533 1.351c-.285.742-.704 1.446-.99 2.189-.152.343-.285.533-.494.837-.096.114-.096.285-.153.438-.057.209-.152.438-.247.647-.114.343-.4.99-.4 1.351 0 .114.057.209.152.209.4 0 .705-.209.99-.438.305-.247.704-.457 1.047-.609.342-.19.685-.248 1.047-.248a3.23 3.23 0 0 1 1.351.343c.285.152.399.4.59.647a3.51 3.51 0 0 1 .285.533c.114.247.095.343.095.609.039.209.038.4.038.59-.038.19-.114.362-.19.552l-.457 1.732c-.304.647-.552 1.351-.932 1.979a5.55 5.55 0 0 0-.495.856c-.209.343-.304.742-.4 1.142a2.6 2.6 0 0 0-.152.837c0 .114 0 .247.038.362.114.4.533.495.933.495.304 0 .59-.19.856-.343.362-.152.457-.285.742-.552.286-.305.4-.533.533-.894.153-.362.438-.609.704-.933.096-.114.305-.457.495-.799l.457-.837c.038-.057.114-.057.209-.057.153 0 .305.095.457.209.114.095.21.209.21.362 0 .057 0 .114-.039.19l-.494.857a3.01 3.01 0 0 1-.438.609l-.647.952-.685.856c-.21.285-.4.609-.647.837-.286.286-.647.4-.952.59-.362.247-.704.533-1.142.685-.4.19-.856.285-1.294.285-.362.133-.742.076-1.047-.076zm-4.682-6.452l.058-.038h.057l.057.038.095.095h.057v-.057l-.286-.209-.247.038-.038.305.038.057h.057l.152-.228zm1.542-2.398l-.057-.342.038-.057.285-.19v-.095l-.038-.038-.095.038-.304.362.114.305h.057v.019zm.799-2.893l.038-.057-.152-.152-.057.038.057.209.114-.038zm.267 2.189v-.057h-.057l-.305.19-.038.057.038.057.362-.248zm.171-1.484l-.057-.286-.057-.038-.114.038.057.209-.038.057-.153.038v.038l.096.057.266-.114zm.076-.952l.438-.99v-.095l-.095-.057-.305.343h-.057l-.361-.114-.039.095.438.305.038.057-.038.114-.247.209.057.095.114.038h.057 0zm-.209 2.055l.342-.152.115-.438-.59-.057-.038.038-.058.095.21.247.038.095-.038.038h-.191l-.038.038.153.114h.095v-.019zm.399-3.654l.058-.095v-.038l-.038-.114-.457-.304-.057.095.038.095h.19l.152.114.038.286.076-.038zm.4-.438l-.057-.095-.038-.057h-.095l-.038.057.095.095h.133zm.248-.381l-.115-.704.057-.152.058-.038.247.152.038-.038-.038-.19.038-.19v-.038l-.247-.19h-.115l-.152.057.095.19v.114l-.114.152.038.704.057.114.153.095v-.038zm-.058-1.047l-.038-.038v-.114l.038-.038.058-.038h.114l.038.057v.114l-.038.057h-.114-.058zm.648-.4l.057-.095-.096-.057-.114.057v.114l.057.038.096-.057zm.361 13.36l.038-.095v-.343l-.114-.095-.114-.305-.057.038v.247l.209.304v.057l-.114.095.057.095h.095zm.076-1.523l.038-.362-.038-.038-.038.038-.095.4.095.057.038-.095zm.362.228l.038-.095-.057-.038-.057.057-.114.285v.038l.19-.247zm.133-.895l.152-.438.038-.038.362-.038.057-.057.114-.19.191-.095-.096-.438.096-.152.038-.038h.057l.095.038.057.038-.038.343.114.152.038.038.114-.057h.058l.057.057.057-.038-.057-.247.114-.285-.495-.286-.057.038-.742.552h-.096l-.152-.057-.114.057-.057.095-.038.152-.114.152.038.038.095.038.209-.114.057.057-.038.114-.19.152h-.19l-.057.038v.438h.114l.209-.019zm.419 2.36l.038-.057-.248-.152-.19-.343v-.057l.19-.343.096-.038h.057l.095.19-.057.19v.057l.038.038.114.057.038-.038.095-.304-.038-.114-.247-.285v-.114l.095-.114.362-.152.057-.152v-.114l-.305-.343-.038-.038.057-.285-.038-.038-.114.038-.114.114.038.19-.248.247.038.038.21-.095.057.038.038.038.038.057-.495 1.085h-.114l-.19-.285v.247l.342.552v.057l-.038.114v.057l.343.095.038-.038zm0-3.902l.285-.209.057-.095-.285-.095-.057-.095-.057.057v.438h.057 0zm.647-1.028l-.038-.095h-.114l-.191.285.057.095h.191l.095-.285zm.552.647l.342.057.057-.038-.038-.19.038-.057.191-.095-.038-.038-.095.038-.058-.019-.285-.286-.362-.152-.057.057.191.209.285.114.057.095v.057l-.057.038-.685-.095-.038.038v.114l.038.038.285.152h.058l.171-.038zm.533-.704l.114-.152v-.152l-.209-.19-.305-.114-.19-.305v-.304l-.038-.038-.038-.057-.115-.038-.095.057.248.4v.114l-.057.114-.153.038.038.095.057.038.191.038.533.457h.019 0zm-.095-1.18l.057-.114-.057-.057-.115-.038-.209-.209-.038-.114.057-.038.247.095h.115l.437-.342-.304-.4-.057-.038-.095.152-.038.362-.039.057h-.057l-.209-.095h-.057l-.057.038-.057.114v.057l.304.552.095.057.077-.038zm-.191-1.446l.057-.038-.038-.114-.038-.057-.095-.038-.038.095.057.209.095-.057zm.78 1.618l.039-.057-.058-.247.058-.152v-.076l-.039-.038h-.114l-.038.057.038.152-.114.247.095.095.095.038.038-.019z"/><path d="M131.277 37.379c-.533-.152-.932-.343-1.256-.742-.19-.209-.209-.438-.304-.685s-.21-.438-.286-.704c0-.152-.038-.304-.038-.457 0-.438.095-.857.152-1.332.038-.209.115-.4.21-.609s.095-.457.19-.685c.19-.59.552-1.104.742-1.694.095-.247.21-.438.343-.647.152-.247.152-.533.247-.761.095-.209.248-.438.343-.647.152-.285.152-.59.247-.894.038-.19.21-.495.21-.647 0-.209-.21-.247-.4-.438-.19-.152-.761-.19-.761-.457 0-.209.19-.59.304-.704.095-.057.19-.095.343-.095s.361.057.533.057l.114-.038c.209-.038.399-.19.552-.305.361-.343.495-.894.647-1.351l.609-1.503c.19-.457.399-1.009.399-1.504 0-.19-.038-.438.039-.647.038-.285.152-.533.437-.609.191-.057.4-.038.59-.095.286-.095.552-.038.838-.095.247-.038.552-.19.837-.19.152 0 .285.038.4.152.114.095.152.247.152.4 0 .362-.209.837-.343 1.104-.095.209-.152.438-.209.647-.095.286-.247.438-.362.685-.285.438-.342 1.009-.532 1.485-.191.4-.495.742-.495 1.142 0 .495.304.704.704.704.114 0 .285-.038.4-.038h.152c.247.095.399.342.399.59a.57.57 0 0 1-.114.343c-.114.095-.361.114-.59.114h-.19-.057c-.305 0-.59.038-.857.152-.685.209-.742.552-.989 1.199-.191.495-.552 1.104-.704 1.637-.096.305-.286.609-.343.952-.095.285-.114.495-.285.761-.305.495-.495 1.104-.648 1.656-.095.343-.19.704-.342 1.047-.114.248-.247.457-.247.742 0 .59.399 1.18.932 1.18.286 0 .609-.114.895-.152.209-.057.647-.285.856-.438.247-.114.4-.285.647-.4.305-.114.533-.285.742-.495.343-.343.609-.742.952-1.085.19-.19.361-.343.495-.552.342-.552.456-.894.609-1.142.038-.095.095-.114.209-.114.095 0 .247.152.305.19.152.114.456.285.361.533-.209.59-.856 1.389-1.237 1.884l-.856 1.18c-.343.438-.99.856-1.352 1.256-.209.209-.361.362-.647.457a2.65 2.65 0 0 0-.647.343c-.533.343-1.085.285-1.694.362-.285.038-.551.095-.799.095-.19 0-.361-.038-.552-.095zm.248-1.085l.247-.647.095-.114-.057-.057-.114-.038-.057-.095-.438-.114-.19-.247-.095-.057-.057.057.095.247.114.095.057.057.057.247.057.095.305.152.038.057v.057l-.114.114v.114l.038.057h.019v.019zm-.248-.704v-.114h.114v.114h-.114zm.857-3.92v-.057l-.057-.057-.058.038-.095.209.057.057.153-.19zm.628 4.587l-.59-.19-.057.038-.038.057.038.057.342.038h.305zm-.305-7.232l.305-.704.095-.057.114.057v.362l.19-.057.057.038.096.095h.057l.399-.78-.038-.038-.342.4h-.114l-.21-.209v-.247l-.095-.038h-.057l-.057.057-.057.209-.038.038h-.057l-.248-.152-.057.038v.095l.209.285v.114l-.285.362v.038l.038.114.095-.019zm.057 1.313l.153-.152-.039-.057-.114-.057-.095.209.038.095.057-.038zm.305-.609l.152-.209.209-.152.057-.057-.095-.057h-.152l-.152.248-.095.038-.191.038-.038.038v.038l.191.114h.114v-.038zm.209-2.189l.19-.19.153-.057-.057-.095-.21-.19-.361.038-.057.038-.039.343.286.152.095-.038zm-.304-.209v-.114l.038-.057h.114l.057.038v.152l-.057.038h-.114l-.038-.057zm.437-1.618l-.095-.057h-.114l-.095.038.038.095h.057l.209-.076zm.057 1.028v-.095l-.095-.038-.095-.095h-.114l-.057.057.304.152h.057v.019zm.305 1.047l.038-.057-.057-.038-.057.057v.057h.057l.019-.019zm.476-.438l.095-.114v-.057l-.095-.057-.191-.038-.057-.038-.057-.209-.057-.057-.038.057v.19l.057.095.286.247h.057v-.019zm0-1.104l.038-.057-.21-.152-.057.038-.038.095.038.057.191.057.038-.038zm.171-.438l.057-.152.057-.038h.114l.058.038.095.152h.095l.685-.856-.038-.305-.038-.057-.152.057-.058-.038-.057-.095.038-.438.058-.095.152-.095v-.533l.095-.114-.095-.152-.114-.114-.305.095h-.057l-.038-.114.057-.114v-.057h-.057l-.209.342v.095l.095.095.209.057.038.057v.057l-.057.095-.152.095h-.057l-.095-.19h-.077v.057l.039.095.057.095.304.19.038.057v.057l-.209.533.304.19.057.152v.114l-.057.038h-.152l-.095.4-.057.038h-.057l-.647-.114-.038.038.095.343.114.095h.057v-.057zm.19-1.009l-.095-.438-.114-.114-.095.038v.114l-.095.152.038.057.304.209.057-.019zm.533-.952l-.038-.057v-.114l.114-.114h.115l.057.057v.038l-.096.19-.114.038h-.038v-.038zm.114-.628l.115-.038v.114l-.115.038v-.114zm.533 2.493l.038-.057-.285-.19-.095.038-.057.038v.057l.057.095.057.038.095.038.19-.057zm.153-2.931l-.115-.114-.038-.057.191-.4.095-.095-.057-.057h-.057l-.286.343v.305l.057.095.114.038.096-.057z"/></g></svg>