<?xml version="1.0" encoding="utf-8"?>
<!-- Generator: Adobe Illustrator 21.1.0, SVG Export Plug-In . SVG Version: 6.00 Build 0)  -->
<svg version="1.1" id="Layer_1" xmlns="http://www.w3.org/2000/svg" xmlns:xlink="http://www.w3.org/1999/xlink" x="0px" y="0px"
	 viewBox="0 0 228 84" style="enable-background:new 0 0 228 84;" xml:space="preserve">
<style type="text/css">
	.st0{fill:#EF5E00;}
	.st1{fill:#FFA900;}
	.st2{fill:#E92200;}
	.st3{fill:#F67902;}
</style>
<title>Full Color</title>
<desc>Created with Sketch.</desc>
<g id="Page-1">
	<g id="Full-Color">
		<path id="Rectangle-14-Copy-464" class="st0" d="M81,27h-9.1L61,66h15.7l9.1-32.7c0.7-2.7-0.8-5.4-3.5-6.2
			C81.9,27.1,81.5,27,81,27z"/>
		<path id="Rectangle-14-Copy-465" class="st1" d="M186,27h-9.2c-4.1,0-7.7,2.4-9.2,6.2L154,66h15.9L186,27z"/>
		<path id="Rectangle-14-Copy-466" class="st2" d="M135,37v29h-5c-5.5,0-10-4.5-10-10V27h5C130.5,27,135,31.5,135,37z"/>
		<path id="Rectangle-14-Copy-467" class="st2" d="M120,14v8h9c3.3,0,6-2.7,6-6V8h-9C122.7,8,120,10.7,120,14z"/>
		<path id="swivl-copy-94" class="st2" d="M32.7,35.8c-1.2-0.3-2.2-0.5-3-0.5c-1.3,0-2.3,0.2-3.1,0.7s-1.2,1.2-1.2,2
			c0,0.4,0.1,0.8,0.2,1.1c0.1,0.3,0.4,0.5,0.8,0.8s1.1,0.5,1.9,0.7s1.9,0.4,3.3,0.7c3.8,0.7,6.6,2.1,8.5,4c1.9,1.9,2.8,4.4,2.8,7.3
			c0,2.2-0.5,4.2-1.4,6s-2.2,3.3-3.8,4.5c-1.6,1.2-3.6,2.2-5.8,2.8c-2.3,0.7-4.8,1-7.5,1c-5.3,0-10.4-1.5-15.5-4.4l2.3-4.4
			c1.4-2.7,4.7-3.9,7.6-2.8c2.5,1,4.5,1.6,6,1.6c1.3,0,2.3-0.3,3.1-0.8c0.8-0.5,1.2-1.2,1.2-2.1c0-0.5-0.1-0.9-0.2-1.2
			s-0.4-0.6-0.8-0.9c-0.4-0.3-1-0.5-1.8-0.7c-0.8-0.2-1.8-0.5-3.1-0.7c-4.2-0.8-7.2-2.1-8.9-3.8c-1.7-1.7-2.5-4-2.5-6.9
			c0-2.1,0.4-4.1,1.2-5.8c0.8-1.7,2-3.2,3.5-4.4s3.3-2.1,5.5-2.8c2.1-0.6,4.5-1,7.2-1c2.9,0,7,0.8,12.5,2.5l-2.3,4.3
			C38.2,35.2,35.4,36.5,32.7,35.8z"/>
		<path id="Rectangle-14-Copy-468" class="st2" d="M44.7,27h9.2c4.1,0,7.7,2.4,9.2,6.2L76.7,66H60.7L44.7,27z"/>
		<path id="Rectangle-14-Copy-469" class="st1" d="M115,27h-8.4c-4.5,0-8.4,3-9.6,7.3L88,66h15.9L115,27z"/>
		<polygon id="Rectangle-14-Copy-470" class="st3" points="71.9,27 87.8,27 103.9,66 88,66 		"/>
		<path id="Rectangle-14-Copy-471" class="st2" d="M138,27h9.2c4.1,0,7.7,2.4,9.2,6.2L170,66h-15.9L138,27z"/>
		<path id="Rectangle-14-Copy-472" class="st2" d="M195,8h-5v48c0,5.5,4.5,10,10,10h5V18C205,12.5,200.5,8,195,8z"/>
	</g>
</g>
</svg>
